<?xml version="1.0" standalone="no"?><!DOCTYPE svg PUBLIC "-//W3C//DTD SVG 1.1//EN" "http://www.w3.org/Graphics/SVG/1.1/DTD/svg11.dtd"><svg t="1655470264933" class="icon" viewBox="0 0 1024 1024" version="1.1" xmlns="http://www.w3.org/2000/svg" p-id="7212" xmlns:xlink="http://www.w3.org/1999/xlink" width="48" height="48"><defs><style type="text/css">@font-face { font-family: feedback-iconfont; src: url("//at.alicdn.com/t/font_1031158_u69w8yhxdu.woff2?t=1630033759944") format("woff2"), url("//at.alicdn.com/t/font_1031158_u69w8yhxdu.woff?t=1630033759944") format("woff"), url("//at.alicdn.com/t/font_1031158_u69w8yhxdu.ttf?t=1630033759944") format("truetype"); }
</style></defs><path d="M490.666667 102.4c12.8-8.533333 29.866667-8.533333 42.666666 0l21.333334 12.8c17.066667 12.8 59.733333 38.4 106.666666 59.733333 25.6 12.8 55.466667 17.066667 85.333334 25.6 17.066667 4.266667 29.866667 4.266667 38.4 4.266667h29.866666c21.333333 0 34.133333 17.066667 34.133334 38.4v320c0 81.066667-42.666667 174.933333-119.466667 251.733333-68.266667 72.533333-153.6 115.2-213.333333 115.2-64 0-145.066667-42.666667-213.333334-115.2-76.8-76.8-119.466667-170.666667-119.466666-251.733333V243.2c0-21.333333 17.066667-38.4 34.133333-38.4H251.733333c8.533333 0 21.333333 0 34.133334-4.266667 25.6-4.266667 55.466667-12.8 81.066666-25.6 4.266667-4.266667 12.8-4.266667 21.333334-8.533333 21.333333-12.8 42.666667-21.333333 64-34.133333 8.533333-4.266667 12.8-8.533333 17.066666-12.8l4.266667-4.266667 17.066667-12.8z m29.866666 12.8c-4.266667-4.266667-12.8-4.266667-21.333333 0l-17.066667 12.8-4.266666 4.266667-8.533334 4.266666c-4.266667 4.266667-8.533333 4.266667-12.8 8.533334-17.066667 12.8-42.666667 25.6-64 34.133333-4.266667 8.533333-12.8 12.8-21.333333 12.8-25.6 12.8-55.466667 21.333333-85.333333 25.6-12.8 4.266667-25.6 4.266667-34.133334 4.266667H213.333333c-8.533333 0-17.066667 8.533333-17.066666 17.066666v320c0 76.8 42.666667 162.133333 115.2 238.933334 68.266667 68.266667 145.066667 110.933333 200.533333 110.933333 55.466667 0 132.266667-42.666667 200.533333-110.933333 72.533333-72.533333 115.2-162.133333 115.2-238.933334V238.933333c0-8.533333-8.533333-17.066667-17.066666-17.066666h-29.866667c-8.533333 0-17.066667 0-29.866667-4.266667h-8.533333c-29.866667-4.266667-59.733333-12.8-89.6-25.6-29.866667-12.8-55.466667-25.6-81.066667-42.666667-12.8-8.533333-21.333333-12.8-29.866666-17.066666l-21.333334-17.066667z m4.266667 34.133333c-8.533333-8.533333-21.333333-8.533333-29.866667 0l-17.066666 12.8s-38.4 29.866667-98.133334 55.466667c-51.2 21.333333-102.4 25.6-106.666666 25.6h-25.6c-12.8 0-21.333333 12.8-21.333334 25.6v290.133333c0 72.533333 38.4 153.6 102.4 221.866667 59.733333 64 132.266667 102.4 183.466667 102.4 51.2 0 123.733333-38.4 183.466667-102.4 68.266667-68.266667 102.4-149.333333 102.4-221.866667V268.8c0-12.8-8.533333-25.6-21.333334-25.6h-25.6s-55.466667 0-110.933333-25.6c-59.733333-25.6-93.866667-55.466667-98.133333-55.466667l-17.066667-12.8z" fill="#CFD6E6" p-id="7213"></path><path d="M610.133333 686.933333v-42.666666H469.333333l106.666667-132.266667c21.333333-25.6 34.133333-42.666667 34.133333-72.533333 0-59.733333-38.4-98.133333-98.133333-98.133334s-98.133333 38.4-98.133333 98.133334h51.2c-4.266667-42.666667 21.333333-55.466667 46.933333-55.466667 29.866667 0 51.2 21.333333 51.2 51.2 0 17.066667-4.266667 29.866667-17.066667 46.933333L413.866667 640v42.666667h196.266666z" fill-opacity=".7" p-id="7214"></path></svg>