<?xml version="1.0" standalone="no"?><!DOCTYPE svg PUBLIC "-//W3C//DTD SVG 1.1//EN" "http://www.w3.org/Graphics/SVG/1.1/DTD/svg11.dtd"><svg t="1655470294279" class="icon" viewBox="0 0 1024 1024" version="1.1" xmlns="http://www.w3.org/2000/svg" p-id="7357" xmlns:xlink="http://www.w3.org/1999/xlink" width="48" height="48"><defs><style type="text/css">@font-face { font-family: feedback-iconfont; src: url("//at.alicdn.com/t/font_1031158_u69w8yhxdu.woff2?t=1630033759944") format("woff2"), url("//at.alicdn.com/t/font_1031158_u69w8yhxdu.woff?t=1630033759944") format("woff"), url("//at.alicdn.com/t/font_1031158_u69w8yhxdu.ttf?t=1630033759944") format("truetype"); }
</style></defs><path d="M490.24 96.128a35.2 35.2 0 0 1 43.221333-0.085333l20.565334 15.786666c18.986667 14.464 58.538667 38.485333 105.216 58.709334a358.4 358.4 0 0 0 83.242666 23.850666c17.237333 2.816 31.573333 4.053333 38.570667 4.224l29.482667 0.512c20.053333 0.341333 35.925333 17.493333 35.925333 38.4l0.170667 319.402667c0 82.688-44.288 174.634667-121.088 252.672-70.101333 71.253333-151.552 115.669333-213.546667 115.669333-62.08 0-143.488-44.373333-213.546667-115.626666-76.842667-78.08-121.088-170.026667-121.088-252.714667V237.525333c0-20.864 15.872-38.058667 35.84-38.357333l29.653334-0.554667 6.144-0.256c8.618667-0.597333 20.48-1.877333 34.346666-4.266666A355.498667 355.498667 0 0 0 364.629333 170.666667a594.261333 594.261333 0 0 0 106.325334-59.605334l19.285333-14.890666z m31.701333 15.488a16.298667 16.298667 0 0 0-20.138666 0l-17.621334 13.653333a174.506667 174.506667 0 0 1-3.328 2.474667l-7.338666 5.12a618.709333 618.709333 0 0 1-101.418667 55.594667A374.058667 374.058667 0 0 1 286.506667 213.333333c-14.592 2.474667-27.136 3.84-36.48 4.48l-6.4 0.298667-30.08 0.554667c-9.386667 0.170667-17.066667 8.490667-17.066667 18.901333v319.402667c0 77.013333 41.984 164.266667 115.498667 238.933333C378.752 863.786667 455.808 905.813333 512 905.813333c56.149333 0 133.248-42.026667 200.064-109.952 73.472-74.666667 115.498667-161.877333 115.498667-238.933333l-0.170667-319.402667c0-10.453333-7.68-18.773333-17.152-18.944l-29.525333-0.512a289.621333 289.621333 0 0 1-31.658667-2.986666l-9.557333-1.493334a377.088 377.088 0 0 1-87.68-25.173333 628.821333 628.821333 0 0 1-80.341334-41.813333 477.44 477.44 0 0 1-28.586666-19.029334l-20.906667-15.957333z m3.925334 30.592a22.272 22.272 0 0 0-27.989334 0.085333l-15.530666 12.330667c-0.426667 0.298667-38.656 30.250667-97.109334 56.106667a325.333333 325.333333 0 0 1-110.506666 26.069333l-26.197334 0.512c-12.970667 0.170667-23.381333 11.733333-23.381333 25.856v288.981333c0 72.234667 38.058667 153.301333 104.405333 222.421334C389.973333 837.546667 459.861333 876.629333 512 876.629333c52.053333 0 122.026667-39.04 182.442667-102.058666 66.304-69.034667 104.405333-150.101333 104.405333-222.421334l-0.170667-288.981333c0-14.165333-10.410667-25.685333-23.381333-25.898667l-26.026667-0.512c-1.578667 0-55.509333-1.706667-110.634666-26.026666-58.026667-25.813333-95.786667-55.125333-96.896-56.021334l-0.213334-0.128-15.658666-12.373333z" fill="#E6DACF" p-id="7358"></path><path d="M613.888 591.317333c0-42.410667-18.773333-67.968-48.213333-80.981333 26.496-13.013333 42.88-36.608 42.88-73.216 0-56.874667-41.386667-95.914667-99.754667-95.914667-54.912 0-97.792 35.2-100.693333 93.482667h49.152c2.389333-30.336 21.674667-49.152 51.541333-49.152 27.989333 0 50.602667 18.346667 50.602667 52.992 0 31.36-16.384 52.053333-52.053334 52.053333H499.2v42.88h8.192c38.528 0 57.344 21.717333 57.344 56.405334 0 36.138667-24.106667 56.874667-55.893333 56.874666-28.458667 0-53.973333-15.445333-55.893334-52.053333H403.712c1.962667 66.986667 50.133333 96.384 105.088 96.384 57.344 0 105.045333-33.749333 105.045333-99.754667z" fill="#000000" fill-opacity=".7" p-id="7359"></path></svg>