<?xml version="1.0" encoding="utf-8"?>
<!-- Generator: Adobe Illustrator 26.0.3, SVG Export Plug-In . SVG Version: 6.00 Build 0)  -->
<svg version="1.1" id="ephQY7FqZmf1" text-rendering="geometricPrecision" shape-rendering="geometricPrecision"
	 xmlns="http://www.w3.org/2000/svg" xmlns:xlink="http://www.w3.org/1999/xlink" x="0px" y="0px" viewBox="0 0 601 400"
	 style="enable-background:new 0 0 601 400;" xml:space="preserve">
<style type="text/css">
	.st0{fill:url(#ephQY7FqZmf104_00000149376565059282271430000010036734208181707435_);filter:url(#Adobe_OpacityMaskFilter);}
	.st1{mask:url(#ephQY7FqZmf103_00000029036402402274922890000001442189177059189438_);}
	
		.st2{fill:url(#ephQY7FqZmf4_00000046339231727132411960000012281433243128357032_);stroke:#2563EB;stroke-width:4;stroke-miterlimit:10;}
	.st3{opacity:0.6;}
	.st4{enable-background:new    ;}
	.st5{fill:#434468;}
	
		.st6{opacity:0.6;fill:none;stroke:#434468;stroke-linecap:round;stroke-linejoin:round;stroke-miterlimit:10;enable-background:new    ;}
	.st7{fill:#2563EB;}
</style>
<defs>
	<filter id="Adobe_OpacityMaskFilter" filterUnits="userSpaceOnUse" x="-27" y="158.9" width="3889.7" height="282.9">
		<feColorMatrix  type="matrix" values="1 0 0 0 0  0 1 0 0 0  0 0 1 0 0  0 0 0 1 0"/>
	</filter>
</defs>
<mask maskUnits="userSpaceOnUse" x="-27" y="158.9" width="3889.7" height="282.9" id="ephQY7FqZmf103_00000029036402402274922890000001442189177059189438_">
	
		<linearGradient id="ephQY7FqZmf104_00000077303355289331315740000010917435685875693186_" gradientUnits="userSpaceOnUse" x1="150.7487" y1="799.5025" x2="151.7487" y2="799.5025" gradientTransform="matrix(601 0 0 -400.0012 -90600 320001.9688)">
		<stop  offset="0.12" style="stop-color:#FFFFFF"/>
		<stop  offset="0.88" style="stop-color:#FFFFFF"/>
	</linearGradient>
	
		<path id="ephQY7FqZmf104_00000175282907069927146600000009165219624055130517_" style="fill:url(#ephQY7FqZmf104_00000077303355289331315740000010917435685875693186_);filter:url(#Adobe_OpacityMaskFilter);" d="
		M0,0v400c400.7-0.5,601-0.5,601,0s0-132.9,0-400H0z"/>
</mask>
<g id="ephQY7FqZmf2" class="st1">
	<g id="ephQY7FqZmf3">
		
			<linearGradient id="ephQY7FqZmf4_00000164512517507499448270000013722648763962227122_" gradientUnits="userSpaceOnUse" x1="1917.85" y1="68.4961" x2="1917.8501" y2="237.3565" gradientTransform="matrix(1 0 0 -1 0 402)">
			<stop  offset="0" style="stop-color:#FFFFFF"/>
			<stop  offset="1" style="stop-color:#DBEAFE"/>
		</linearGradient>
		
			<path id="ephQY7FqZmf4" style="fill:url(#ephQY7FqZmf4_00000164512517507499448270000013722648763962227122_);stroke:#2563EB;stroke-width:4;stroke-miterlimit:10;" d="
			M3738.4,220.4c-30.6,0-22.7-27.8-46.5-27.8c-23.8,0-22.1-31.7-79.9-31.7s-56.3,31.9-88.4,31.9c-32.1,0-47.2-14-57.4-17.8
			s-19.7-2.3-19.7-2.3c-19.6,0-16.2,27.2-36.6,27.2c-20.4,0-31.5-27.2-46.8-27.2c-15.3,0-29.8,27.2-57,27.2
			c-27.2,0-53.6-15.3-82.5-15.3c-28.9,0-35.7,29.8-62.9,29.8s-8.5-49.3-45.1-49.3c-36.6,0-37.4,44.2-64.6,44.2s-36.6-40.8-57.8-40.8
			s-11.9,40-34,40c-22.1,0-30.6-13.6-56.1-13.6s-19.6,11.9-48.5,11.9c-28.9,0-41.7-6.8-66.3-6.8c-24.6,0-11.9,39.1-35.7,39.1
			c-23.8,0-27.2-39.1-50.2-39.1s-11.8-31.4-31.5-31.5c-6.8,0-17.9,5.1-51.9,28.1s-79.9,16.2-98.6,13.6
			c-18.7-2.6-28.1-23.4-50.6-23.4s-3.8-25.9-25.9-25.9c-22.1,0-29.8,25.5-43.4,25.5s-16.2-18.7-36.3-17
			c-19.5,1.6-4.5,62.9-25.8,62.9c-21.3,0-10.2-39.1-21.3-39.1c-11.1,0-7.7-32.3-23.8-32.3c-16.1,0-21.3,13.6-41.7,13.6
			c-20.4,0-23.8-13.6-43.4-13.6c-26.8,0-57.8,40.9-74.7,40.9s-13.7-30.7-29.9-29.9c-16.2,0.8-24.7,24.7-40.8,29.7
			c-16.2,5-22.5-11.8-34.9-14.4c-13.6-2.8-29.5,15.6-42.5,24.1c-14.1,9.2-63.5,6.8-63.5,6.8c-97.5,0-91.8,2.3-122.5,2.3
			c-30.6,0-22.7-27.8-46.5-27.8c-23.8,0-22.1-31.7-79.9-31.7s-56.3,31.9-88.4,31.9s-47.2-14-57.4-17.8c-10.2-3.8-19.7-2.3-19.7-2.3
			c-19.6,0-16.2,27.2-36.6,27.2s-31.5-27.2-46.8-27.2c-15.3,0-29.8,27.2-57,27.2c-27.2,0-53.6-15.3-82.5-15.3s-35.7,29.8-62.9,29.8
			c-27.2,0-8.5-49.3-45.1-49.3s-37.4,44.2-64.6,44.2s-36.6-40.8-57.8-40.8c-21.3,0-11.9,40-34,40s-30.6-13.6-56.1-13.6
			s-19.6,11.9-48.5,11.9c-28.9,0-41.6-6.8-66.3-6.8s-11.9,39.1-35.7,39.1c-23.8,0-27.2-39.1-50.2-39.1s-11.8-31.4-31.5-31.5
			c-6.8,0-17.9,5.1-51.9,28.1s-79.9,16.2-98.6,13.6c-18.7-2.6-28.1-23.4-50.6-23.4s-3.8-25.9-25.9-25.9s-29.8,25.5-43.4,25.5
			s-16.2-18.7-36.3-17c-19.5,1.6-4.5,62.9-25.8,62.9c-21.3,0-10.2-39.1-21.3-39.1s-7.7-32.3-23.8-32.3c-16.2,0-21.3,13.6-41.7,13.6
			s-23.8-13.6-43.4-13.6c-26.8,0-57.8,40.9-74.7,40.9s-13.7-30.7-29.9-29.9c-16.2,0.8-24.7,24.7-40.8,29.7s-22.5-11.8-34.9-14.4
			c-13.6-2.8-29.5,15.6-42.5,24.1c-14.1,9.2-71.4,6.5-71.4,6.5v222h1591.9h347h7.9h1584h354.9v-39.1c0,0,0-150.2,0-213.7
			C3763.4,187,3769,220.4,3738.4,220.4z"/>
		<g id="ephQY7FqZmf5">
			<g id="ephQY7FqZmf6">
				<g id="ephQY7FqZmf7" class="st3">
					<g id="ephQY7FqZmf8" class="st4">
						<path class="st5" d="M46.1,356.8h2v10.4c0,1.4-0.4,2.5-1.3,3.3c-0.8,0.8-2,1.2-3.4,1.2c-1.5,0-2.6-0.4-3.4-1.1
							c-0.8-0.7-1.2-1.8-1.2-3.1h1.9c0,0.8,0.2,1.5,0.7,2c0.5,0.5,1.1,0.7,2,0.7c0.8,0,1.5-0.3,1.9-0.8c0.5-0.5,0.7-1.2,0.8-2.1
							V356.8z"/>
						<path class="st5" d="M57.8,371.6c-0.1-0.2-0.2-0.6-0.3-1.2c-0.9,0.9-1.9,1.4-3.1,1.4c-1.1,0-2-0.3-2.7-0.9
							c-0.7-0.6-1-1.4-1-2.3c0-1.1,0.4-2,1.3-2.7c0.9-0.6,2.1-0.9,3.7-0.9h1.8v-0.9c0-0.7-0.2-1.2-0.6-1.6c-0.4-0.4-1-0.6-1.7-0.6
							c-0.7,0-1.2,0.2-1.7,0.5c-0.5,0.3-0.7,0.7-0.7,1.2h-1.9c0-0.5,0.2-1.1,0.6-1.6c0.4-0.5,0.9-0.9,1.6-1.2
							c0.7-0.3,1.4-0.4,2.2-0.4c1.3,0,2.2,0.3,3,0.9c0.7,0.6,1.1,1.5,1.1,2.6v5c0,1,0.1,1.8,0.4,2.4v0.2H57.8z M54.7,370.1
							c0.6,0,1.1-0.2,1.7-0.5c0.5-0.3,0.9-0.7,1.1-1.2v-2.2H56c-2.3,0-3.4,0.7-3.4,2c0,0.6,0.2,1,0.6,1.4S54.1,370.1,54.7,370.1z"/>
						<path class="st5" d="M64,360.6l0.1,1.4c0.8-1.1,1.9-1.6,3.3-1.6c2.3,0,3.5,1.3,3.5,3.9v7.2H69v-7.2c0-0.8-0.2-1.4-0.5-1.7
							c-0.4-0.4-0.9-0.6-1.7-0.6c-0.6,0-1.1,0.2-1.6,0.5s-0.8,0.7-1.1,1.3v7.8h-1.9v-10.9H64z"/>
						<path class="st5" d="M88.3,371.6h-9.6v-1.3l5.1-5.7c0.8-0.9,1.3-1.6,1.6-2.1c0.3-0.5,0.4-1.1,0.4-1.7c0-0.8-0.2-1.4-0.7-1.9
							s-1.1-0.7-1.9-0.7c-0.9,0-1.7,0.3-2.2,0.8c-0.5,0.5-0.8,1.3-0.8,2.2h-1.9c0-1.4,0.4-2.4,1.3-3.3c0.9-0.8,2-1.3,3.5-1.3
							c1.4,0,2.4,0.4,3.2,1.1c0.8,0.7,1.2,1.7,1.2,2.9c0,1.4-0.9,3.2-2.8,5.2l-3.9,4.3h7.4V371.6z"/>
						<path class="st5" d="M99.5,365.3c0,2.2-0.4,3.8-1.1,4.9c-0.7,1.1-1.9,1.6-3.5,1.6c-1.6,0-2.7-0.5-3.5-1.6
							c-0.8-1-1.1-2.6-1.2-4.7V363c0-2.2,0.4-3.8,1.1-4.8c0.7-1.1,1.9-1.6,3.5-1.6c1.6,0,2.7,0.5,3.5,1.5c0.7,1,1.1,2.6,1.2,4.7
							V365.3z M97.6,362.7c0-1.6-0.2-2.7-0.7-3.5c-0.4-0.7-1.1-1.1-2.1-1.1c-1,0-1.7,0.4-2.1,1.1c-0.4,0.7-0.7,1.8-0.7,3.3v3
							c0,1.6,0.2,2.8,0.7,3.5c0.5,0.8,1.2,1.1,2.1,1.1c0.9,0,1.6-0.4,2.1-1.1c0.4-0.7,0.7-1.8,0.7-3.4V362.7z"/>
						<path class="st5" d="M111.5,371.6h-9.6v-1.3l5.1-5.7c0.8-0.9,1.3-1.6,1.6-2.1c0.3-0.5,0.4-1.1,0.4-1.7c0-0.8-0.2-1.4-0.7-1.9
							s-1.1-0.7-1.9-0.7c-0.9,0-1.7,0.3-2.2,0.8c-0.5,0.5-0.8,1.3-0.8,2.2h-1.9c0-1.4,0.4-2.4,1.3-3.3c0.9-0.8,2-1.3,3.5-1.3
							c1.4,0,2.4,0.4,3.2,1.1c0.8,0.7,1.2,1.7,1.2,2.9c0,1.4-0.9,3.2-2.8,5.2l-3.9,4.3h7.4V371.6z"/>
						<path class="st5" d="M119.6,371.6h-1.9v-12.5l-3.8,1.4v-1.7l5.4-2h0.3V371.6z"/>
					</g>
				</g>
				<line id="ephQY7FqZmf9" class="st6" x1="81" y1="344" x2="81" y2="326.6"/>
			</g>
			<g id="ephQY7FqZmf10">
				<g id="ephQY7FqZmf11" class="st3">
					<g id="ephQY7FqZmf12" class="st4">
						<path class="st5" d="M209.6,365.1h-6.2v6.5h-1.9v-14.7h9.1v1.6h-7.2v5h6.2V365.1z"/>
						<path class="st5" d="M217.2,371.8c-1.5,0-2.7-0.5-3.6-1.5s-1.4-2.3-1.4-3.9V366c0-1.1,0.2-2.1,0.6-2.9c0.4-0.9,1-1.5,1.7-2
							c0.7-0.5,1.6-0.7,2.4-0.7c1.4,0,2.5,0.5,3.3,1.4c0.8,0.9,1.2,2.3,1.2,4v0.8H214c0,1.1,0.3,1.9,0.9,2.6c0.6,0.7,1.4,1,2.3,1
							c0.7,0,1.2-0.1,1.7-0.4s0.9-0.6,1.2-1.1l1.1,0.9C220.4,371.1,219,371.8,217.2,371.8z M217,362c-0.8,0-1.4,0.3-1.9,0.8
							c-0.5,0.5-0.8,1.3-0.9,2.3h5.5v-0.1c-0.1-1-0.3-1.7-0.8-2.2C218.4,362.2,217.7,362,217,362z"/>
						<path class="st5" d="M232.9,366.2c0,1.7-0.4,3-1.2,4c-0.8,1-1.8,1.5-3.1,1.5c-1.4,0-2.4-0.5-3.2-1.5l-0.1,1.3h-1.7V356h1.9
							v5.8c0.8-0.9,1.8-1.4,3.1-1.4s2.4,0.5,3.1,1.5c0.8,1,1.1,2.4,1.1,4.1V366.2z M231,366c0-1.3-0.2-2.3-0.7-3
							c-0.5-0.7-1.2-1-2.1-1c-1.2,0-2.1,0.6-2.7,1.7v4.7c0.6,1.1,1.5,1.7,2.7,1.7c0.9,0,1.6-0.3,2.1-1
							C230.8,368.4,231,367.4,231,366z"/>
						<path class="st5" d="M249.8,371.6h-9.6v-1.3l5.1-5.7c0.8-0.9,1.3-1.6,1.6-2.1c0.3-0.5,0.4-1.1,0.4-1.7c0-0.8-0.2-1.4-0.7-1.9
							s-1.1-0.7-1.9-0.7c-0.9,0-1.7,0.3-2.2,0.8c-0.5,0.5-0.8,1.3-0.8,2.2h-1.9c0-1.4,0.4-2.4,1.3-3.3c0.9-0.8,2-1.3,3.5-1.3
							c1.4,0,2.4,0.4,3.2,1.1c0.8,0.7,1.2,1.7,1.2,2.9c0,1.4-0.9,3.2-2.8,5.2l-3.9,4.3h7.4V371.6z"/>
						<path class="st5" d="M261,365.3c0,2.2-0.4,3.8-1.1,4.9c-0.7,1.1-1.9,1.6-3.5,1.6c-1.6,0-2.7-0.5-3.5-1.6
							c-0.8-1-1.1-2.6-1.2-4.7V363c0-2.2,0.4-3.8,1.1-4.8c0.7-1.1,1.9-1.6,3.5-1.6c1.6,0,2.7,0.5,3.5,1.5c0.7,1,1.1,2.6,1.2,4.7
							V365.3z M259.1,362.7c0-1.6-0.2-2.7-0.7-3.5c-0.4-0.7-1.1-1.1-2.1-1.1c-1,0-1.7,0.4-2.1,1.1c-0.4,0.7-0.7,1.8-0.7,3.3v3
							c0,1.6,0.2,2.8,0.7,3.5c0.5,0.8,1.2,1.1,2.1,1.1c0.9,0,1.6-0.4,2.1-1.1c0.4-0.7,0.7-1.8,0.7-3.4V362.7z"/>
						<path class="st5" d="M273,371.6h-9.6v-1.3l5.1-5.7c0.8-0.9,1.3-1.6,1.6-2.1c0.3-0.5,0.4-1.1,0.4-1.7c0-0.8-0.2-1.4-0.7-1.9
							s-1.1-0.7-1.9-0.7c-0.9,0-1.7,0.3-2.2,0.8c-0.5,0.5-0.8,1.3-0.8,2.2h-1.9c0-1.4,0.4-2.4,1.3-3.3c0.9-0.8,2-1.3,3.5-1.3
							c1.4,0,2.4,0.4,3.2,1.1c0.8,0.7,1.2,1.7,1.2,2.9c0,1.4-0.9,3.2-2.8,5.2l-3.9,4.3h7.4V371.6z"/>
						<path class="st5" d="M281.2,371.6h-1.9v-12.5l-3.8,1.4v-1.7l5.4-2h0.3V371.6z"/>
					</g>
				</g>
				<line id="ephQY7FqZmf13" class="st6" x1="242.6" y1="344" x2="242.6" y2="326.6"/>
			</g>
			<g id="ephQY7FqZmf14">
				<g id="ephQY7FqZmf15" class="st3">
					<g id="ephQY7FqZmf16" class="st4">
						<path class="st5" d="M364.4,356.8l4.8,12l4.8-12h2.5v14.7h-1.9v-5.7l0.2-6.2l-4.8,11.9h-1.5l-4.8-11.9l0.2,6.2v5.7h-1.9v-14.7
							H364.4z"/>
						<path class="st5" d="M386.4,371.6c-0.1-0.2-0.2-0.6-0.3-1.2c-0.9,0.9-1.9,1.4-3.1,1.4c-1.1,0-2-0.3-2.7-0.9
							c-0.7-0.6-1-1.4-1-2.3c0-1.1,0.4-2,1.3-2.7s2.1-0.9,3.7-0.9h1.8v-0.9c0-0.7-0.2-1.2-0.6-1.6c-0.4-0.4-1-0.6-1.7-0.6
							c-0.7,0-1.2,0.2-1.7,0.5s-0.7,0.7-0.7,1.2h-1.9c0-0.5,0.2-1.1,0.6-1.6c0.4-0.5,0.9-0.9,1.6-1.2c0.7-0.3,1.4-0.4,2.2-0.4
							c1.3,0,2.2,0.3,3,0.9s1.1,1.5,1.1,2.6v5c0,1,0.1,1.8,0.4,2.4v0.2H386.4z M383.3,370.1c0.6,0,1.1-0.2,1.7-0.5
							c0.5-0.3,0.9-0.7,1.1-1.2v-2.2h-1.5c-2.3,0-3.4,0.7-3.4,2c0,0.6,0.2,1,0.6,1.4S382.7,370.1,383.3,370.1z"/>
						<path class="st5" d="M396.2,362.3c-0.3,0-0.6-0.1-0.9-0.1c-1.2,0-2.1,0.5-2.5,1.6v7.8H391v-10.9h1.8l0,1.3
							c0.6-1,1.5-1.5,2.6-1.5c0.4,0,0.6,0,0.8,0.1V362.3z"/>
						<path class="st5" d="M412.5,371.6h-9.6v-1.3l5.1-5.7c0.8-0.9,1.3-1.6,1.6-2.1c0.3-0.5,0.4-1.1,0.4-1.7c0-0.8-0.2-1.4-0.7-1.9
							s-1.1-0.7-1.9-0.7c-0.9,0-1.7,0.3-2.2,0.8c-0.5,0.5-0.8,1.3-0.8,2.2h-1.9c0-1.4,0.4-2.4,1.3-3.3s2-1.3,3.5-1.3
							c1.4,0,2.4,0.4,3.2,1.1c0.8,0.7,1.2,1.7,1.2,2.9c0,1.4-0.9,3.2-2.8,5.2l-3.9,4.3h7.4V371.6z"/>
						<path class="st5" d="M423.7,365.3c0,2.2-0.4,3.8-1.1,4.9s-1.9,1.6-3.5,1.6c-1.6,0-2.7-0.5-3.5-1.6c-0.8-1-1.1-2.6-1.2-4.7V363
							c0-2.2,0.4-3.8,1.1-4.8s1.9-1.6,3.5-1.6c1.6,0,2.7,0.5,3.5,1.5s1.1,2.6,1.2,4.7V365.3z M421.9,362.7c0-1.6-0.2-2.7-0.7-3.5
							c-0.4-0.7-1.1-1.1-2.1-1.1c-1,0-1.7,0.4-2.1,1.1s-0.7,1.8-0.7,3.3v3c0,1.6,0.2,2.8,0.7,3.5c0.5,0.8,1.2,1.1,2.1,1.1
							c0.9,0,1.6-0.4,2.1-1.1s0.7-1.8,0.7-3.4V362.7z"/>
						<path class="st5" d="M435.8,371.6h-9.6v-1.3l5.1-5.7c0.8-0.9,1.3-1.6,1.6-2.1c0.3-0.5,0.4-1.1,0.4-1.7c0-0.8-0.2-1.4-0.7-1.9
							s-1.1-0.7-1.9-0.7c-0.9,0-1.7,0.3-2.2,0.8c-0.5,0.5-0.8,1.3-0.8,2.2h-1.9c0-1.4,0.4-2.4,1.3-3.3s2-1.3,3.5-1.3
							c1.4,0,2.4,0.4,3.2,1.1c0.8,0.7,1.2,1.7,1.2,2.9c0,1.4-0.9,3.2-2.8,5.2l-3.9,4.3h7.4V371.6z"/>
						<path class="st5" d="M443.9,371.6H442v-12.5l-3.8,1.4v-1.7l5.4-2h0.3V371.6z"/>
					</g>
				</g>
				<line id="ephQY7FqZmf17" class="st6" x1="404.2" y1="344" x2="404.2" y2="326.6"/>
			</g>
			<g id="ephQY7FqZmf18">
				<g id="ephQY7FqZmf19" class="st3">
					<g id="ephQY7FqZmf20" class="st4">
						<path class="st5" d="M533.7,367.7h-6.2l-1.4,3.8h-2l5.6-14.7h1.7l5.6,14.7h-2L533.7,367.7z M528.2,366.1h5l-2.5-6.9
							L528.2,366.1z"/>
						<path class="st5" d="M548,366.2c0,1.7-0.4,3-1.1,4c-0.8,1-1.8,1.5-3.1,1.5c-1.3,0-2.4-0.4-3.1-1.3v5.3h-1.9v-15.1h1.7l0.1,1.2
							c0.8-0.9,1.8-1.4,3.2-1.4c1.3,0,2.4,0.5,3.1,1.5c0.8,1,1.1,2.4,1.1,4.1V366.2z M546.2,366c0-1.2-0.3-2.2-0.8-2.9
							s-1.2-1.1-2.2-1.1c-1.1,0-2,0.5-2.5,1.5v5.2c0.6,1,1.4,1.5,2.6,1.5c0.9,0,1.6-0.4,2.1-1.1C545.9,368.5,546.2,367.4,546.2,366z
							"/>
						<path class="st5" d="M555.7,362.3c-0.3,0-0.6-0.1-0.9-0.1c-1.2,0-2.1,0.5-2.5,1.6v7.8h-1.9v-10.9h1.8l0,1.3
							c0.6-1,1.5-1.5,2.6-1.5c0.4,0,0.6,0,0.8,0.1V362.3z"/>
						<path class="st5" d="M572,371.6h-9.6v-1.3l5.1-5.7c0.8-0.9,1.3-1.6,1.6-2.1c0.3-0.5,0.4-1.1,0.4-1.7c0-0.8-0.2-1.4-0.7-1.9
							s-1.1-0.7-1.9-0.7c-0.9,0-1.7,0.3-2.2,0.8c-0.5,0.5-0.8,1.3-0.8,2.2h-1.9c0-1.4,0.4-2.4,1.3-3.3c0.9-0.8,2-1.3,3.5-1.3
							c1.4,0,2.4,0.4,3.2,1.1c0.8,0.7,1.2,1.7,1.2,2.9c0,1.4-0.9,3.2-2.8,5.2l-3.9,4.3h7.4V371.6z"/>
						<path class="st5" d="M583.2,365.3c0,2.2-0.4,3.8-1.1,4.9c-0.7,1.1-1.9,1.6-3.5,1.6c-1.6,0-2.7-0.5-3.5-1.6
							c-0.8-1-1.1-2.6-1.2-4.7V363c0-2.2,0.4-3.8,1.1-4.8c0.7-1.1,1.9-1.6,3.5-1.6c1.6,0,2.7,0.5,3.5,1.5c0.7,1,1.1,2.6,1.2,4.7
							V365.3z M581.3,362.7c0-1.6-0.2-2.7-0.7-3.5c-0.4-0.7-1.1-1.1-2.1-1.1c-1,0-1.7,0.4-2.1,1.1c-0.4,0.7-0.7,1.8-0.7,3.3v3
							c0,1.6,0.2,2.8,0.7,3.5c0.5,0.8,1.2,1.1,2.1,1.1c0.9,0,1.6-0.4,2.1-1.1c0.4-0.7,0.7-1.8,0.7-3.4V362.7z"/>
						<path class="st5" d="M595.2,371.6h-9.6v-1.3l5.1-5.7c0.8-0.9,1.3-1.6,1.6-2.1c0.3-0.5,0.4-1.1,0.4-1.7c0-0.8-0.2-1.4-0.7-1.9
							s-1.1-0.7-1.9-0.7c-0.9,0-1.7,0.3-2.2,0.8c-0.5,0.5-0.8,1.3-0.8,2.2h-1.9c0-1.4,0.4-2.4,1.3-3.3s2-1.3,3.5-1.3
							c1.4,0,2.4,0.4,3.2,1.1c0.8,0.7,1.2,1.7,1.2,2.9c0,1.4-0.9,3.2-2.8,5.2l-3.9,4.3h7.4V371.6z"/>
						<path class="st5" d="M603.4,371.6h-1.9v-12.5l-3.8,1.4v-1.7l5.4-2h0.3V371.6z"/>
					</g>
				</g>
				<line id="ephQY7FqZmf21" class="st6" x1="565.8" y1="344" x2="565.8" y2="326.6"/>
			</g>
			<g id="ephQY7FqZmf22">
				<g id="ephQY7FqZmf23" class="st3">
					<g id="ephQY7FqZmf24" class="st4">
						<path class="st5" d="M686.2,356.8l4.8,12l4.8-12h2.5v14.7h-1.9v-5.7l0.2-6.2l-4.8,11.9h-1.5l-4.8-11.9l0.2,6.2v5.7h-1.9v-14.7
							H686.2z"/>
						<path class="st5" d="M708.2,371.6c-0.1-0.2-0.2-0.6-0.3-1.2c-0.9,0.9-1.9,1.4-3.1,1.4c-1.1,0-2-0.3-2.7-0.9
							c-0.7-0.6-1-1.4-1-2.3c0-1.1,0.4-2,1.3-2.7s2.1-0.9,3.7-0.9h1.8v-0.9c0-0.7-0.2-1.2-0.6-1.6c-0.4-0.4-1-0.6-1.7-0.6
							c-0.7,0-1.2,0.2-1.7,0.5s-0.7,0.7-0.7,1.2h-1.9c0-0.5,0.2-1.1,0.6-1.6c0.4-0.5,0.9-0.9,1.6-1.2c0.7-0.3,1.4-0.4,2.2-0.4
							c1.3,0,2.2,0.3,3,0.9s1.1,1.5,1.1,2.6v5c0,1,0.1,1.8,0.4,2.4v0.2H708.2z M705.1,370.1c0.6,0,1.1-0.2,1.7-0.5
							c0.5-0.3,0.9-0.7,1.1-1.2v-2.2h-1.5c-2.3,0-3.4,0.7-3.4,2c0,0.6,0.2,1,0.6,1.4S704.5,370.1,705.1,370.1z"/>
						<path class="st5" d="M716.3,368.8l2.5-8.2h2l-4.4,12.6c-0.7,1.8-1.8,2.7-3.2,2.7l-0.4,0l-0.7-0.1v-1.5l0.5,0
							c0.6,0,1.1-0.1,1.5-0.4c0.4-0.3,0.6-0.7,0.9-1.4l0.4-1.1l-3.9-10.8h2L716.3,368.8z"/>
						<path class="st5" d="M737.1,371.6h-9.6v-1.3l5.1-5.7c0.8-0.9,1.3-1.6,1.6-2.1c0.3-0.5,0.4-1.1,0.4-1.7c0-0.8-0.2-1.4-0.7-1.9
							s-1.1-0.7-1.9-0.7c-0.9,0-1.7,0.3-2.2,0.8c-0.5,0.5-0.8,1.3-0.8,2.2h-1.9c0-1.4,0.4-2.4,1.3-3.3c0.9-0.8,2-1.3,3.5-1.3
							c1.4,0,2.4,0.4,3.2,1.1c0.8,0.7,1.2,1.7,1.2,2.9c0,1.4-0.9,3.2-2.8,5.2l-3.9,4.3h7.4V371.6z"/>
						<path class="st5" d="M748.3,365.3c0,2.2-0.4,3.8-1.1,4.9c-0.7,1.1-1.9,1.6-3.5,1.6c-1.6,0-2.7-0.5-3.5-1.6
							c-0.8-1-1.1-2.6-1.2-4.7V363c0-2.2,0.4-3.8,1.1-4.8c0.7-1.1,1.9-1.6,3.5-1.6c1.6,0,2.7,0.5,3.5,1.5c0.7,1,1.1,2.6,1.2,4.7
							V365.3z M746.4,362.7c0-1.6-0.2-2.7-0.7-3.5c-0.4-0.7-1.1-1.1-2.1-1.1c-1,0-1.7,0.4-2.1,1.1c-0.4,0.7-0.7,1.8-0.7,3.3v3
							c0,1.6,0.2,2.8,0.7,3.5c0.5,0.8,1.2,1.1,2.1,1.1c0.9,0,1.6-0.4,2.1-1.1c0.4-0.7,0.7-1.8,0.7-3.4V362.7z"/>
						<path class="st5" d="M760.3,371.6h-9.6v-1.3l5.1-5.7c0.8-0.9,1.3-1.6,1.6-2.1c0.3-0.5,0.4-1.1,0.4-1.7c0-0.8-0.2-1.4-0.7-1.9
							s-1.1-0.7-1.9-0.7c-0.9,0-1.7,0.3-2.2,0.8c-0.5,0.5-0.8,1.3-0.8,2.2h-1.9c0-1.4,0.4-2.4,1.3-3.3c0.9-0.8,2-1.3,3.5-1.3
							c1.4,0,2.4,0.4,3.2,1.1c0.8,0.7,1.2,1.7,1.2,2.9c0,1.4-0.9,3.2-2.8,5.2l-3.9,4.3h7.4V371.6z"/>
						<path class="st5" d="M768.4,371.6h-1.9v-12.5l-3.8,1.4v-1.7l5.4-2h0.3V371.6z"/>
					</g>
				</g>
				<line id="ephQY7FqZmf25" class="st6" x1="727.3" y1="344" x2="727.3" y2="326.6"/>
			</g>
			<g id="ephQY7FqZmf26">
				<g id="ephQY7FqZmf27" class="st3">
					<g id="ephQY7FqZmf28" class="st4">
						<path class="st5" d="M853.9,356.8h2v10.4c0,1.4-0.4,2.5-1.3,3.3c-0.8,0.8-2,1.2-3.4,1.2c-1.5,0-2.6-0.4-3.4-1.1
							c-0.8-0.7-1.2-1.8-1.2-3.1h1.9c0,0.8,0.2,1.5,0.7,2c0.5,0.5,1.1,0.7,2,0.7c0.8,0,1.5-0.3,1.9-0.8c0.5-0.5,0.7-1.2,0.8-2.1
							V356.8z"/>
						<path class="st5" d="M865.6,370.5c-0.7,0.9-1.8,1.3-3.2,1.3c-1.2,0-2.1-0.3-2.7-1c-0.6-0.7-0.9-1.7-0.9-3v-7.1h1.9v7.1
							c0,1.7,0.7,2.5,2,2.5c1.4,0,2.4-0.5,2.8-1.6v-8h1.9v10.9h-1.8L865.6,370.5z"/>
						<path class="st5" d="M872,360.6l0.1,1.4c0.8-1.1,1.9-1.6,3.3-1.6c2.3,0,3.5,1.3,3.5,3.9v7.2H877v-7.2c0-0.8-0.2-1.4-0.5-1.7
							c-0.4-0.4-0.9-0.6-1.7-0.6c-0.6,0-1.1,0.2-1.6,0.5s-0.8,0.7-1.1,1.3v7.8h-1.9v-10.9H872z"/>
						<path class="st5" d="M896.2,371.6h-9.6v-1.3l5.1-5.7c0.8-0.9,1.3-1.6,1.6-2.1c0.3-0.5,0.4-1.1,0.4-1.7c0-0.8-0.2-1.4-0.7-1.9
							s-1.1-0.7-1.9-0.7c-0.9,0-1.7,0.3-2.2,0.8c-0.5,0.5-0.8,1.3-0.8,2.2h-1.9c0-1.4,0.4-2.4,1.3-3.3s2-1.3,3.5-1.3
							c1.4,0,2.4,0.4,3.2,1.1c0.8,0.7,1.2,1.7,1.2,2.9c0,1.4-0.9,3.2-2.8,5.2l-3.9,4.3h7.4V371.6z"/>
						<path class="st5" d="M907.4,365.3c0,2.2-0.4,3.8-1.1,4.9s-1.9,1.6-3.5,1.6c-1.6,0-2.7-0.5-3.5-1.6c-0.8-1-1.1-2.6-1.2-4.7V363
							c0-2.2,0.4-3.8,1.1-4.8s1.9-1.6,3.5-1.6c1.6,0,2.7,0.5,3.5,1.5s1.1,2.6,1.2,4.7V365.3z M905.5,362.7c0-1.6-0.2-2.7-0.7-3.5
							c-0.4-0.7-1.1-1.1-2.1-1.1c-1,0-1.7,0.4-2.1,1.1s-0.7,1.8-0.7,3.3v3c0,1.6,0.2,2.8,0.7,3.5c0.5,0.8,1.2,1.1,2.1,1.1
							c0.9,0,1.6-0.4,2.1-1.1s0.7-1.8,0.7-3.4V362.7z"/>
						<path class="st5" d="M919.5,371.6h-9.6v-1.3l5.1-5.7c0.8-0.9,1.3-1.6,1.6-2.1c0.3-0.5,0.4-1.1,0.4-1.7c0-0.8-0.2-1.4-0.7-1.9
							s-1.1-0.7-1.9-0.7c-0.9,0-1.7,0.3-2.2,0.8c-0.5,0.5-0.8,1.3-0.8,2.2h-1.9c0-1.4,0.4-2.4,1.3-3.3s2-1.3,3.5-1.3
							c1.4,0,2.4,0.4,3.2,1.1c0.8,0.7,1.2,1.7,1.2,2.9c0,1.4-0.9,3.2-2.8,5.2l-3.9,4.3h7.4V371.6z"/>
						<path class="st5" d="M927.6,371.6h-1.9v-12.5l-3.8,1.4v-1.7l5.4-2h0.3V371.6z"/>
					</g>
				</g>
				<line id="ephQY7FqZmf29" class="st6" x1="888.9" y1="344" x2="888.9" y2="326.6"/>
			</g>
			<g id="ephQY7FqZmf30">
				<g id="ephQY7FqZmf31" class="st3">
					<g id="ephQY7FqZmf32" class="st4">
						<path class="st5" d="M1018.6,356.8h2v10.4c0,1.4-0.4,2.5-1.3,3.3c-0.8,0.8-2,1.2-3.4,1.2c-1.5,0-2.6-0.4-3.4-1.1
							c-0.8-0.7-1.2-1.8-1.2-3.1h1.9c0,0.8,0.2,1.5,0.7,2c0.5,0.5,1.1,0.7,2,0.7c0.8,0,1.4-0.3,1.9-0.8c0.5-0.5,0.7-1.2,0.8-2.1
							V356.8z"/>
						<path class="st5" d="M1030.3,370.5c-0.7,0.9-1.8,1.3-3.2,1.3c-1.2,0-2.1-0.3-2.7-1s-0.9-1.7-0.9-3v-7.1h1.9v7.1
							c0,1.7,0.7,2.5,2,2.5c1.4,0,2.4-0.5,2.8-1.6v-8h1.9v10.9h-1.8L1030.3,370.5z"/>
						<path class="st5" d="M1037,371.6h-1.9V356h1.9V371.6z"/>
						<path class="st5" d="M1054.6,371.6h-9.6v-1.3l5.1-5.7c0.8-0.9,1.3-1.6,1.6-2.1c0.3-0.5,0.4-1.1,0.4-1.7c0-0.8-0.2-1.4-0.7-1.9
							s-1.1-0.7-1.9-0.7c-0.9,0-1.7,0.3-2.2,0.8c-0.5,0.5-0.8,1.3-0.8,2.2h-1.9c0-1.4,0.4-2.4,1.3-3.3c0.9-0.8,2-1.3,3.5-1.3
							c1.4,0,2.4,0.4,3.2,1.1c0.8,0.7,1.2,1.7,1.2,2.9c0,1.4-0.9,3.2-2.8,5.2l-3.9,4.3h7.4V371.6z"/>
						<path class="st5" d="M1065.8,365.3c0,2.2-0.4,3.8-1.1,4.9s-1.9,1.6-3.5,1.6c-1.6,0-2.7-0.5-3.5-1.6c-0.8-1-1.1-2.6-1.2-4.7
							V363c0-2.2,0.4-3.8,1.1-4.8s1.9-1.6,3.5-1.6c1.6,0,2.7,0.5,3.5,1.5c0.7,1,1.1,2.6,1.2,4.7V365.3z M1063.9,362.7
							c0-1.6-0.2-2.7-0.7-3.5c-0.4-0.7-1.1-1.1-2.1-1.1c-1,0-1.7,0.4-2.1,1.1c-0.4,0.7-0.7,1.8-0.7,3.3v3c0,1.6,0.2,2.8,0.7,3.5
							c0.5,0.8,1.2,1.1,2.1,1.1c0.9,0,1.6-0.4,2.1-1.1s0.7-1.8,0.7-3.4V362.7z"/>
						<path class="st5" d="M1077.8,371.6h-9.6v-1.3l5.1-5.7c0.8-0.9,1.3-1.6,1.6-2.1c0.3-0.5,0.4-1.1,0.4-1.7c0-0.8-0.2-1.4-0.7-1.9
							s-1.1-0.7-1.9-0.7c-0.9,0-1.7,0.3-2.2,0.8c-0.5,0.5-0.8,1.3-0.8,2.2h-1.9c0-1.4,0.4-2.4,1.3-3.3c0.9-0.8,2-1.3,3.5-1.3
							c1.4,0,2.4,0.4,3.2,1.1c0.8,0.7,1.2,1.7,1.2,2.9c0,1.4-0.9,3.2-2.8,5.2l-3.9,4.3h7.4V371.6z"/>
						<path class="st5" d="M1085.9,371.6h-1.9v-12.5l-3.8,1.4v-1.7l5.4-2h0.3V371.6z"/>
					</g>
				</g>
				<line id="ephQY7FqZmf33" class="st6" x1="1050.5" y1="344" x2="1050.5" y2="326.6"/>
			</g>
			<g id="ephQY7FqZmf34">
				<g id="ephQY7FqZmf35" class="st3">
					<g id="ephQY7FqZmf36" class="st4">
						<path class="st5" d="M1177.8,367.7h-6.2l-1.4,3.8h-2l5.6-14.7h1.7l5.6,14.7h-2L1177.8,367.7z M1172.2,366.1h5l-2.5-6.9
							L1172.2,366.1z"/>
						<path class="st5" d="M1189.5,370.5c-0.7,0.9-1.8,1.3-3.2,1.3c-1.2,0-2.1-0.3-2.7-1c-0.6-0.7-0.9-1.7-0.9-3v-7.1h1.9v7.1
							c0,1.7,0.7,2.5,2,2.5c1.4,0,2.4-0.5,2.8-1.6v-8h1.9v10.9h-1.8L1189.5,370.5z"/>
						<path class="st5" d="M1193.8,366c0-1.7,0.4-3.1,1.2-4.1c0.8-1,1.8-1.5,3.1-1.5c1.3,0,2.4,0.5,3.1,1.4l0.1-1.2h1.7v10.7
							c0,1.4-0.4,2.5-1.3,3.3c-0.8,0.8-2,1.2-3.4,1.2c-0.8,0-1.6-0.2-2.3-0.5c-0.8-0.3-1.3-0.8-1.7-1.4l1-1.1c0.8,1,1.8,1.5,2.9,1.5
							c0.9,0,1.6-0.3,2.1-0.8s0.8-1.2,0.8-2.2v-0.9c-0.7,0.9-1.8,1.3-3.1,1.3c-1.3,0-2.3-0.5-3.1-1.5
							C1194.2,369.2,1193.8,367.8,1193.8,366z M1195.6,366.2c0,1.2,0.3,2.2,0.8,2.9s1.2,1.1,2.1,1.1c1.2,0,2-0.5,2.6-1.6v-5
							c-0.6-1-1.4-1.6-2.6-1.6c-0.9,0-1.6,0.4-2.1,1.1C1195.9,363.8,1195.6,364.8,1195.6,366.2z"/>
						<path class="st5" d="M1220.4,371.6h-9.6v-1.3l5.1-5.7c0.8-0.9,1.3-1.6,1.6-2.1c0.3-0.5,0.4-1.1,0.4-1.7c0-0.8-0.2-1.4-0.7-1.9
							s-1.1-0.7-1.9-0.7c-0.9,0-1.7,0.3-2.2,0.8c-0.5,0.5-0.8,1.3-0.8,2.2h-1.9c0-1.4,0.4-2.4,1.3-3.3s2-1.3,3.5-1.3
							c1.4,0,2.4,0.4,3.2,1.1c0.8,0.7,1.2,1.7,1.2,2.9c0,1.4-0.9,3.2-2.8,5.2l-3.9,4.3h7.4V371.6z"/>
						<path class="st5" d="M1231.6,365.3c0,2.2-0.4,3.8-1.1,4.9s-1.9,1.6-3.5,1.6c-1.6,0-2.7-0.5-3.5-1.6c-0.8-1-1.1-2.6-1.2-4.7
							V363c0-2.2,0.4-3.8,1.1-4.8s1.9-1.6,3.5-1.6c1.6,0,2.7,0.5,3.5,1.5s1.1,2.6,1.2,4.7V365.3z M1229.7,362.7
							c0-1.6-0.2-2.7-0.7-3.5c-0.4-0.7-1.1-1.1-2.1-1.1c-1,0-1.7,0.4-2.1,1.1s-0.7,1.8-0.7,3.3v3c0,1.6,0.2,2.8,0.7,3.5
							c0.5,0.8,1.2,1.1,2.1,1.1c0.9,0,1.6-0.4,2.1-1.1s0.7-1.8,0.7-3.4V362.7z"/>
						<path class="st5" d="M1243.6,371.6h-9.6v-1.3l5.1-5.7c0.8-0.9,1.3-1.6,1.6-2.1c0.3-0.5,0.4-1.1,0.4-1.7c0-0.8-0.2-1.4-0.7-1.9
							s-1.1-0.7-1.9-0.7c-0.9,0-1.7,0.3-2.2,0.8c-0.5,0.5-0.8,1.3-0.8,2.2h-1.9c0-1.4,0.4-2.4,1.3-3.3s2-1.3,3.5-1.3
							c1.4,0,2.4,0.4,3.2,1.1c0.8,0.7,1.2,1.7,1.2,2.9c0,1.4-0.9,3.2-2.8,5.2l-3.9,4.3h7.4V371.6z"/>
						<path class="st5" d="M1251.7,371.6h-1.9v-12.5l-3.8,1.4v-1.7l5.4-2h0.3V371.6z"/>
					</g>
				</g>
				<line id="ephQY7FqZmf37" class="st6" x1="1212.1" y1="344" x2="1212.1" y2="326.6"/>
			</g>
			<g id="ephQY7FqZmf38">
				<g id="ephQY7FqZmf39" class="st3">
					<g id="ephQY7FqZmf40" class="st4">
						<path class="st5" d="M1336.4,365c-1.7-0.5-2.9-1.1-3.6-1.8c-0.8-0.7-1.1-1.6-1.1-2.6c0-1.2,0.5-2.1,1.4-2.9
							c0.9-0.8,2.1-1.1,3.6-1.1c1,0,1.9,0.2,2.7,0.6s1.4,0.9,1.8,1.6c0.4,0.7,0.7,1.4,0.7,2.3h-2c0-0.9-0.3-1.6-0.8-2.1
							c-0.6-0.5-1.4-0.8-2.4-0.8c-1,0-1.7,0.2-2.2,0.6c-0.5,0.4-0.8,1-0.8,1.8c0,0.6,0.3,1.1,0.8,1.5s1.4,0.8,2.6,1.1
							c1.2,0.3,2.2,0.7,2.9,1.1s1.2,0.9,1.5,1.5c0.3,0.6,0.5,1.2,0.5,2c0,1.2-0.5,2.1-1.4,2.9s-2.2,1.1-3.7,1.1c-1,0-2-0.2-2.8-0.6
							c-0.9-0.4-1.6-0.9-2-1.6c-0.5-0.7-0.7-1.4-0.7-2.3h1.9c0,0.9,0.3,1.6,1,2.1c0.7,0.5,1.5,0.8,2.6,0.8c1,0,1.8-0.2,2.4-0.6
							c0.5-0.4,0.8-1,0.8-1.7s-0.3-1.3-0.8-1.7C1338.7,365.8,1337.8,365.4,1336.4,365z"/>
						<path class="st5" d="M1348.6,371.8c-1.5,0-2.7-0.5-3.6-1.5s-1.4-2.3-1.4-3.9V366c0-1.1,0.2-2.1,0.6-2.9c0.4-0.9,1-1.5,1.7-2
							c0.7-0.5,1.6-0.7,2.4-0.7c1.4,0,2.5,0.5,3.3,1.4c0.8,0.9,1.2,2.3,1.2,4v0.8h-7.4c0,1.1,0.3,1.9,0.9,2.6c0.6,0.7,1.4,1,2.3,1
							c0.7,0,1.2-0.1,1.7-0.4s0.9-0.6,1.2-1.1l1.1,0.9C1351.8,371.1,1350.5,371.8,1348.6,371.8z M1348.4,362c-0.8,0-1.4,0.3-1.9,0.8
							c-0.5,0.5-0.8,1.3-0.9,2.3h5.5v-0.1c-0.1-1-0.3-1.7-0.8-2.2C1349.8,362.2,1349.2,362,1348.4,362z"/>
						<path class="st5" d="M1364.3,366.2c0,1.7-0.4,3-1.1,4c-0.8,1-1.8,1.5-3.1,1.5c-1.3,0-2.4-0.4-3.1-1.3v5.3h-1.9v-15.1h1.7
							l0.1,1.2c0.8-0.9,1.8-1.4,3.2-1.4c1.3,0,2.4,0.5,3.1,1.5s1.1,2.4,1.1,4.1V366.2z M1362.4,366c0-1.2-0.3-2.2-0.8-2.9
							s-1.2-1.1-2.2-1.1c-1.1,0-2,0.5-2.5,1.5v5.2c0.6,1,1.4,1.5,2.6,1.5c0.9,0,1.6-0.4,2.1-1.1
							C1362.2,368.5,1362.4,367.4,1362.4,366z"/>
						<path class="st5" d="M1381.2,371.6h-9.6v-1.3l5.1-5.7c0.8-0.9,1.3-1.6,1.6-2.1c0.3-0.5,0.4-1.1,0.4-1.7c0-0.8-0.2-1.4-0.7-1.9
							s-1.1-0.7-1.9-0.7c-0.9,0-1.7,0.3-2.2,0.8c-0.5,0.5-0.8,1.3-0.8,2.2h-1.9c0-1.4,0.4-2.4,1.3-3.3c0.9-0.8,2-1.3,3.5-1.3
							c1.4,0,2.4,0.4,3.2,1.1c0.8,0.7,1.2,1.7,1.2,2.9c0,1.4-0.9,3.2-2.8,5.2l-3.9,4.3h7.4V371.6z"/>
						<path class="st5" d="M1392.4,365.3c0,2.2-0.4,3.8-1.1,4.9s-1.9,1.6-3.5,1.6c-1.6,0-2.7-0.5-3.5-1.6c-0.8-1-1.1-2.6-1.2-4.7
							V363c0-2.2,0.4-3.8,1.1-4.8s1.9-1.6,3.5-1.6c1.6,0,2.7,0.5,3.5,1.5s1.1,2.6,1.2,4.7V365.3z M1390.6,362.7
							c0-1.6-0.2-2.7-0.7-3.5c-0.4-0.7-1.1-1.1-2.1-1.1c-1,0-1.7,0.4-2.1,1.1s-0.7,1.8-0.7,3.3v3c0,1.6,0.2,2.8,0.7,3.5
							c0.5,0.8,1.2,1.1,2.1,1.1c0.9,0,1.6-0.4,2.1-1.1s0.7-1.8,0.7-3.4V362.7z"/>
						<path class="st5" d="M1404.5,371.6h-9.6v-1.3l5.1-5.7c0.8-0.9,1.3-1.6,1.6-2.1c0.3-0.5,0.4-1.1,0.4-1.7c0-0.8-0.2-1.4-0.7-1.9
							s-1.1-0.7-1.9-0.7c-0.9,0-1.7,0.3-2.2,0.8c-0.5,0.5-0.8,1.3-0.8,2.2h-1.9c0-1.4,0.4-2.4,1.3-3.3s2-1.3,3.5-1.3
							c1.4,0,2.4,0.4,3.2,1.1c0.8,0.7,1.2,1.7,1.2,2.9c0,1.4-0.9,3.2-2.8,5.2l-3.9,4.3h7.4V371.6z"/>
						<path class="st5" d="M1412.6,371.6h-1.9v-12.5l-3.8,1.4v-1.7l5.4-2h0.3V371.6z"/>
					</g>
				</g>
				<line id="ephQY7FqZmf41" class="st6" x1="1373.6" y1="344" x2="1373.6" y2="326.6"/>
			</g>
			<g id="ephQY7FqZmf42">
				<g id="ephQY7FqZmf43" class="st3">
					<g id="ephQY7FqZmf44" class="st4">
						<path class="st5" d="M1506.5,364.7c0,1.4-0.2,2.7-0.7,3.8c-0.5,1.1-1.2,1.9-2.1,2.5c-0.9,0.6-1.9,0.8-3.1,0.8
							c-1.2,0-2.2-0.3-3.1-0.9c-0.9-0.6-1.6-1.4-2.1-2.4c-0.5-1.1-0.8-2.3-0.8-3.7v-1.1c0-1.4,0.2-2.7,0.7-3.7
							c0.5-1.1,1.2-1.9,2.1-2.5c0.9-0.6,1.9-0.9,3.1-0.9c1.2,0,2.2,0.3,3.1,0.9s1.6,1.4,2.1,2.5s0.7,2.3,0.7,3.8V364.7z
							 M1504.6,363.7c0-1.7-0.4-3.1-1.1-4c-0.7-0.9-1.7-1.4-2.9-1.4c-1.2,0-2.2,0.5-2.9,1.4c-0.7,0.9-1.1,2.2-1.1,3.9v1.1
							c0,1.7,0.4,3,1.1,4c0.7,1,1.7,1.4,2.9,1.4c1.3,0,2.2-0.5,2.9-1.4c0.7-0.9,1-2.2,1.1-3.9V363.7z"/>
						<path class="st5" d="M1513.5,370.2c0.7,0,1.2-0.2,1.7-0.6c0.5-0.4,0.8-0.9,0.8-1.5h1.8c0,0.6-0.2,1.2-0.6,1.8
							c-0.4,0.6-0.9,1-1.6,1.4c-0.7,0.3-1.4,0.5-2.1,0.5c-1.5,0-2.7-0.5-3.6-1.5c-0.9-1-1.3-2.4-1.3-4.1v-0.3c0-1.1,0.2-2,0.6-2.8
							c0.4-0.8,1-1.5,1.7-1.9s1.6-0.7,2.6-0.7c1.2,0,2.2,0.4,3.1,1.1c0.8,0.7,1.2,1.7,1.3,2.9h-1.8c-0.1-0.7-0.3-1.3-0.8-1.7
							c-0.5-0.5-1.1-0.7-1.8-0.7c-1,0-1.7,0.3-2.2,1c-0.5,0.7-0.8,1.7-0.8,3v0.4c0,1.3,0.3,2.2,0.8,2.9
							C1511.8,369.9,1512.6,370.2,1513.5,370.2z"/>
						<path class="st5" d="M1522.5,358v2.6h2v1.4h-2v6.8c0,0.4,0.1,0.8,0.3,1c0.2,0.2,0.5,0.3,0.9,0.3c0.2,0,0.5,0,0.9-0.1v1.5
							c-0.5,0.1-1,0.2-1.4,0.2c-0.8,0-1.5-0.3-1.9-0.8c-0.4-0.5-0.6-1.2-0.6-2.2v-6.8h-2v-1.4h2V358H1522.5z"/>
						<path class="st5" d="M1541.3,371.6h-9.6v-1.3l5.1-5.7c0.8-0.9,1.3-1.6,1.6-2.1c0.3-0.5,0.4-1.1,0.4-1.7c0-0.8-0.2-1.4-0.7-1.9
							s-1.1-0.7-1.9-0.7c-0.9,0-1.7,0.3-2.2,0.8c-0.5,0.5-0.8,1.3-0.8,2.2h-1.9c0-1.4,0.4-2.4,1.3-3.3c0.9-0.8,2-1.3,3.5-1.3
							c1.4,0,2.4,0.4,3.2,1.1c0.8,0.7,1.2,1.7,1.2,2.9c0,1.4-0.9,3.2-2.8,5.2l-3.9,4.3h7.4V371.6z"/>
						<path class="st5" d="M1552.5,365.3c0,2.2-0.4,3.8-1.1,4.9c-0.7,1.1-1.9,1.6-3.5,1.6c-1.6,0-2.7-0.5-3.5-1.6
							c-0.8-1-1.1-2.6-1.2-4.7V363c0-2.2,0.4-3.8,1.1-4.8c0.7-1.1,1.9-1.6,3.5-1.6c1.6,0,2.7,0.5,3.5,1.5c0.7,1,1.1,2.6,1.2,4.7
							V365.3z M1550.6,362.7c0-1.6-0.2-2.7-0.7-3.5c-0.4-0.7-1.1-1.1-2.1-1.1c-1,0-1.7,0.4-2.1,1.1c-0.4,0.7-0.7,1.8-0.7,3.3v3
							c0,1.6,0.2,2.8,0.7,3.5c0.5,0.8,1.2,1.1,2.1,1.1c0.9,0,1.6-0.4,2.1-1.1c0.4-0.7,0.7-1.8,0.7-3.4V362.7z"/>
						<path class="st5" d="M1564.5,371.6h-9.6v-1.3l5.1-5.7c0.8-0.9,1.3-1.6,1.6-2.1c0.3-0.5,0.4-1.1,0.4-1.7c0-0.8-0.2-1.4-0.7-1.9
							s-1.1-0.7-1.9-0.7c-0.9,0-1.7,0.3-2.2,0.8c-0.5,0.5-0.8,1.3-0.8,2.2h-1.9c0-1.4,0.4-2.4,1.3-3.3c0.9-0.8,2-1.3,3.5-1.3
							c1.4,0,2.4,0.4,3.2,1.1c0.8,0.7,1.2,1.7,1.2,2.9c0,1.4-0.9,3.2-2.8,5.2l-3.9,4.3h7.4V371.6z"/>
						<path class="st5" d="M1572.7,371.6h-1.9v-12.5l-3.8,1.4v-1.7l5.4-2h0.3V371.6z"/>
					</g>
				</g>
				<line id="ephQY7FqZmf45" class="st6" x1="1535.2" y1="344" x2="1535.2" y2="326.6"/>
			</g>
			<g id="ephQY7FqZmf46">
				<g id="ephQY7FqZmf47" class="st3">
					<g id="ephQY7FqZmf48" class="st4">
						<path class="st5" d="M1665.7,371.6h-2l-7.4-11.3v11.3h-2v-14.7h2l7.4,11.4v-11.4h1.9V371.6z"/>
						<path class="st5" d="M1668.4,366c0-1.1,0.2-2,0.6-2.9c0.4-0.9,1-1.5,1.8-2c0.8-0.5,1.6-0.7,2.6-0.7c1.5,0,2.7,0.5,3.6,1.5
							c0.9,1,1.4,2.4,1.4,4.1v0.1c0,1.1-0.2,2-0.6,2.9c-0.4,0.8-1,1.5-1.7,2s-1.6,0.7-2.6,0.7c-1.5,0-2.7-0.5-3.6-1.5
							c-0.9-1-1.4-2.4-1.4-4.1V366z M1670.2,366.2c0,1.2,0.3,2.2,0.8,2.9s1.3,1.1,2.3,1.1c0.9,0,1.7-0.4,2.3-1.1
							c0.6-0.7,0.8-1.8,0.8-3.1c0-1.2-0.3-2.2-0.9-2.9c-0.6-0.7-1.3-1.1-2.3-1.1c-0.9,0-1.7,0.4-2.2,1.1
							C1670.5,363.8,1670.2,364.8,1670.2,366.2z"/>
						<path class="st5" d="M1684.1,369l2.7-8.4h1.9l-3.9,10.9h-1.4l-4-10.9h1.9L1684.1,369z"/>
						<path class="st5" d="M1705.1,371.6h-9.6v-1.3l5.1-5.7c0.8-0.9,1.3-1.6,1.6-2.1c0.3-0.5,0.4-1.1,0.4-1.7c0-0.8-0.2-1.4-0.7-1.9
							s-1.1-0.7-1.9-0.7c-0.9,0-1.7,0.3-2.2,0.8c-0.5,0.5-0.8,1.3-0.8,2.2h-1.9c0-1.4,0.4-2.4,1.3-3.3c0.9-0.8,2-1.3,3.5-1.3
							c1.4,0,2.4,0.4,3.2,1.1c0.8,0.7,1.2,1.7,1.2,2.9c0,1.4-0.9,3.2-2.8,5.2l-3.9,4.3h7.4V371.6z"/>
						<path class="st5" d="M1716.3,365.3c0,2.2-0.4,3.8-1.1,4.9c-0.7,1.1-1.9,1.6-3.5,1.6c-1.6,0-2.7-0.5-3.5-1.6
							c-0.8-1-1.1-2.6-1.2-4.7V363c0-2.2,0.4-3.8,1.1-4.8c0.7-1.1,1.9-1.6,3.5-1.6c1.6,0,2.7,0.5,3.5,1.5s1.1,2.6,1.2,4.7V365.3z
							 M1714.4,362.7c0-1.6-0.2-2.7-0.7-3.5c-0.4-0.7-1.1-1.1-2.1-1.1c-1,0-1.7,0.4-2.1,1.1s-0.7,1.8-0.7,3.3v3
							c0,1.6,0.2,2.8,0.7,3.5c0.5,0.8,1.2,1.1,2.1,1.1c0.9,0,1.6-0.4,2.1-1.1c0.4-0.7,0.7-1.8,0.7-3.4V362.7z"/>
						<path class="st5" d="M1728.3,371.6h-9.6v-1.3l5.1-5.7c0.8-0.9,1.3-1.6,1.6-2.1c0.3-0.5,0.4-1.1,0.4-1.7c0-0.8-0.2-1.4-0.7-1.9
							s-1.1-0.7-1.9-0.7c-0.9,0-1.7,0.3-2.2,0.8c-0.5,0.5-0.8,1.3-0.8,2.2h-1.9c0-1.4,0.4-2.4,1.3-3.3c0.9-0.8,2-1.3,3.5-1.3
							c1.4,0,2.4,0.4,3.2,1.1c0.8,0.7,1.2,1.7,1.2,2.9c0,1.4-0.9,3.2-2.8,5.2l-3.9,4.3h7.4V371.6z"/>
						<path class="st5" d="M1736.5,371.6h-1.9v-12.5l-3.8,1.4v-1.7l5.4-2h0.3V371.6z"/>
					</g>
				</g>
				<line id="ephQY7FqZmf49" class="st6" x1="1696.8" y1="344" x2="1696.8" y2="326.6"/>
			</g>
			<g id="ephQY7FqZmf50">
				<g id="ephQY7FqZmf51" class="st3">
					<g id="ephQY7FqZmf52" class="st4">
						<path class="st5" d="M1816.6,371.6v-14.7h4.2c1.3,0,2.4,0.3,3.4,0.8c1,0.6,1.7,1.4,2.3,2.4c0.5,1,0.8,2.2,0.8,3.6v0.9
							c0,1.4-0.3,2.6-0.8,3.6c-0.5,1-1.3,1.8-2.3,2.4c-1,0.6-2.2,0.8-3.5,0.9H1816.6z M1818.5,358.4V370h2c1.5,0,2.7-0.5,3.5-1.4
							c0.8-0.9,1.2-2.3,1.2-4v-0.9c0-1.7-0.4-3-1.2-3.9c-0.8-0.9-1.9-1.4-3.3-1.4H1818.5z"/>
						<path class="st5" d="M1834.4,371.8c-1.5,0-2.7-0.5-3.6-1.5s-1.4-2.3-1.4-3.9V366c0-1.1,0.2-2.1,0.6-2.9c0.4-0.9,1-1.5,1.7-2
							c0.7-0.5,1.6-0.7,2.4-0.7c1.4,0,2.5,0.5,3.3,1.4s1.2,2.3,1.2,4v0.8h-7.4c0,1.1,0.3,1.9,0.9,2.6c0.6,0.7,1.4,1,2.3,1
							c0.7,0,1.2-0.1,1.7-0.4s0.9-0.6,1.2-1.1l1.1,0.9C1837.6,371.1,1836.2,371.8,1834.4,371.8z M1834.2,362c-0.8,0-1.4,0.3-1.9,0.8
							c-0.5,0.5-0.8,1.3-1,2.3h5.5v-0.1c-0.1-1-0.3-1.7-0.8-2.2C1835.6,362.2,1834.9,362,1834.2,362z"/>
						<path class="st5" d="M1845.2,370.2c0.7,0,1.2-0.2,1.7-0.6c0.5-0.4,0.8-0.9,0.8-1.5h1.8c0,0.6-0.2,1.2-0.6,1.8
							c-0.4,0.6-0.9,1-1.6,1.4c-0.7,0.3-1.4,0.5-2.1,0.5c-1.5,0-2.7-0.5-3.6-1.5c-0.9-1-1.3-2.4-1.3-4.1v-0.3c0-1.1,0.2-2,0.6-2.8
							c0.4-0.8,1-1.5,1.7-1.9s1.6-0.7,2.6-0.7c1.2,0,2.2,0.4,3.1,1.1c0.8,0.7,1.2,1.7,1.3,2.9h-1.8c-0.1-0.7-0.3-1.3-0.8-1.7
							c-0.5-0.5-1.1-0.7-1.8-0.7c-1,0-1.7,0.3-2.2,1c-0.5,0.7-0.8,1.7-0.8,3v0.4c0,1.3,0.3,2.2,0.8,2.9
							C1843.5,369.9,1844.2,370.2,1845.2,370.2z"/>
						<path class="st5" d="M1866.2,371.6h-9.6v-1.3l5.1-5.7c0.8-0.9,1.3-1.6,1.6-2.1c0.3-0.5,0.4-1.1,0.4-1.7c0-0.8-0.2-1.4-0.7-1.9
							s-1.1-0.7-1.9-0.7c-0.9,0-1.7,0.3-2.2,0.8c-0.5,0.5-0.8,1.3-0.8,2.2h-1.9c0-1.4,0.4-2.4,1.3-3.3c0.9-0.8,2-1.3,3.5-1.3
							c1.4,0,2.4,0.4,3.2,1.1c0.8,0.7,1.2,1.7,1.2,2.9c0,1.4-0.9,3.2-2.8,5.2l-3.9,4.3h7.4V371.6z"/>
						<path class="st5" d="M1877.4,365.3c0,2.2-0.4,3.8-1.1,4.9c-0.7,1.1-1.9,1.6-3.5,1.6c-1.6,0-2.7-0.5-3.5-1.6
							c-0.8-1-1.1-2.6-1.2-4.7V363c0-2.2,0.4-3.8,1.1-4.8c0.7-1.1,1.9-1.6,3.5-1.6c1.6,0,2.7,0.5,3.5,1.5c0.7,1,1.1,2.6,1.2,4.7
							V365.3z M1875.6,362.7c0-1.6-0.2-2.7-0.7-3.5c-0.4-0.7-1.1-1.1-2.1-1.1c-1,0-1.7,0.4-2.1,1.1c-0.4,0.7-0.7,1.8-0.7,3.3v3
							c0,1.6,0.2,2.8,0.7,3.5c0.5,0.8,1.2,1.1,2.1,1.1c0.9,0,1.6-0.4,2.1-1.1c0.4-0.7,0.7-1.8,0.7-3.4V362.7z"/>
						<path class="st5" d="M1889.5,371.6h-9.6v-1.3l5.1-5.7c0.8-0.9,1.3-1.6,1.6-2.1c0.3-0.5,0.4-1.1,0.4-1.7c0-0.8-0.2-1.4-0.7-1.9
							s-1.1-0.7-1.9-0.7c-0.9,0-1.7,0.3-2.2,0.8c-0.5,0.5-0.8,1.3-0.8,2.2h-1.9c0-1.4,0.4-2.4,1.3-3.3c0.9-0.8,2-1.3,3.5-1.3
							c1.4,0,2.4,0.4,3.2,1.1c0.8,0.7,1.2,1.7,1.2,2.9c0,1.4-0.9,3.2-2.8,5.2l-3.9,4.3h7.4V371.6z"/>
						<path class="st5" d="M1897.6,371.6h-1.9v-12.5l-3.8,1.4v-1.7l5.4-2h0.3V371.6z"/>
					</g>
				</g>
				<line id="ephQY7FqZmf53" class="st6" x1="1858.4" y1="344" x2="1858.4" y2="326.6"/>
			</g>
		</g>
		<g id="ephQY7FqZmf54">
			<g id="ephQY7FqZmf55">
				<g id="ephQY7FqZmf56" class="st3">
					<g id="ephQY7FqZmf57" class="st4">
						<path class="st5" d="M1985,356.8h2v10.4c0,1.4-0.4,2.5-1.3,3.3c-0.8,0.8-2,1.2-3.4,1.2c-1.5,0-2.6-0.4-3.4-1.1
							c-0.8-0.7-1.2-1.8-1.2-3.1h1.9c0,0.8,0.2,1.5,0.7,2c0.5,0.5,1.1,0.7,2,0.7c0.8,0,1.5-0.3,1.9-0.8c0.5-0.5,0.7-1.2,0.8-2.1
							V356.8z"/>
						<path class="st5" d="M1996.7,371.6c-0.1-0.2-0.2-0.6-0.3-1.2c-0.9,0.9-1.9,1.4-3.1,1.4c-1.1,0-2-0.3-2.7-0.9
							c-0.7-0.6-1-1.4-1-2.3c0-1.1,0.4-2,1.3-2.7s2.1-0.9,3.7-0.9h1.8v-0.9c0-0.7-0.2-1.2-0.6-1.6c-0.4-0.4-1-0.6-1.7-0.6
							c-0.7,0-1.2,0.2-1.7,0.5s-0.7,0.7-0.7,1.2h-1.9c0-0.5,0.2-1.1,0.6-1.6c0.4-0.5,0.9-0.9,1.6-1.2c0.7-0.3,1.4-0.4,2.2-0.4
							c1.3,0,2.2,0.3,3,0.9s1.1,1.5,1.1,2.6v5c0,1,0.1,1.8,0.4,2.4v0.2H1996.7z M1993.6,370.1c0.6,0,1.1-0.2,1.7-0.5
							c0.5-0.3,0.9-0.7,1.1-1.2v-2.2h-1.5c-2.3,0-3.4,0.7-3.4,2c0,0.6,0.2,1,0.6,1.4S1992.9,370.1,1993.6,370.1z"/>
						<path class="st5" d="M2002.9,360.6l0.1,1.4c0.8-1.1,1.9-1.6,3.3-1.6c2.3,0,3.5,1.3,3.5,3.9v7.2h-1.9v-7.2
							c0-0.8-0.2-1.4-0.5-1.7c-0.4-0.4-0.9-0.6-1.7-0.6c-0.6,0-1.1,0.2-1.6,0.5s-0.8,0.7-1.1,1.3v7.8h-1.9v-10.9H2002.9z"/>
						<path class="st5" d="M2027.2,371.6h-9.6v-1.3l5.1-5.7c0.8-0.9,1.3-1.6,1.6-2.1c0.3-0.5,0.4-1.1,0.4-1.7c0-0.8-0.2-1.4-0.7-1.9
							s-1.1-0.7-1.9-0.7c-0.9,0-1.7,0.3-2.2,0.8c-0.5,0.5-0.8,1.3-0.8,2.2h-1.9c0-1.4,0.4-2.4,1.3-3.3c0.9-0.8,2-1.3,3.5-1.3
							c1.4,0,2.4,0.4,3.2,1.1c0.8,0.7,1.2,1.7,1.2,2.9c0,1.4-0.9,3.2-2.8,5.2l-3.9,4.3h7.4V371.6z"/>
						<path class="st5" d="M2038.4,365.3c0,2.2-0.4,3.8-1.1,4.9c-0.7,1.1-1.9,1.6-3.5,1.6c-1.6,0-2.7-0.5-3.5-1.6
							c-0.8-1-1.1-2.6-1.2-4.7V363c0-2.2,0.4-3.8,1.1-4.8c0.7-1.1,1.9-1.6,3.5-1.6c1.6,0,2.7,0.5,3.5,1.5c0.7,1,1.1,2.6,1.2,4.7
							V365.3z M2036.5,362.7c0-1.6-0.2-2.7-0.7-3.5c-0.4-0.7-1.1-1.1-2.1-1.1c-1,0-1.7,0.4-2.1,1.1c-0.4,0.7-0.7,1.8-0.7,3.3v3
							c0,1.6,0.2,2.8,0.7,3.5c0.5,0.8,1.2,1.1,2.1,1.1c0.9,0,1.6-0.4,2.1-1.1c0.4-0.7,0.7-1.8,0.7-3.4V362.7z"/>
						<path class="st5" d="M2050.4,371.6h-9.6v-1.3l5.1-5.7c0.8-0.9,1.3-1.6,1.6-2.1c0.3-0.5,0.4-1.1,0.4-1.7c0-0.8-0.2-1.4-0.7-1.9
							s-1.1-0.7-1.9-0.7c-0.9,0-1.7,0.3-2.2,0.8c-0.5,0.5-0.8,1.3-0.8,2.2h-1.9c0-1.4,0.4-2.4,1.3-3.3s2-1.3,3.5-1.3
							c1.4,0,2.4,0.4,3.2,1.1c0.8,0.7,1.2,1.7,1.2,2.9c0,1.4-0.9,3.2-2.8,5.2l-3.9,4.3h7.4V371.6z"/>
						<path class="st5" d="M2058.5,371.6h-1.9v-12.5l-3.8,1.4v-1.7l5.4-2h0.3V371.6z"/>
					</g>
				</g>
				<line id="ephQY7FqZmf58" class="st6" x1="2019.9" y1="344" x2="2019.9" y2="326.6"/>
			</g>
			<g id="ephQY7FqZmf59">
				<g id="ephQY7FqZmf60" class="st3">
					<g id="ephQY7FqZmf61" class="st4">
						<path class="st5" d="M2148.5,365.1h-6.2v6.5h-1.9v-14.7h9.1v1.6h-7.2v5h6.2V365.1z"/>
						<path class="st5" d="M2156.1,371.8c-1.5,0-2.7-0.5-3.6-1.5s-1.4-2.3-1.4-3.9V366c0-1.1,0.2-2.1,0.6-2.9c0.4-0.9,1-1.5,1.7-2
							c0.7-0.5,1.6-0.7,2.4-0.7c1.4,0,2.5,0.5,3.3,1.4s1.2,2.3,1.2,4v0.8h-7.4c0,1.1,0.3,1.9,0.9,2.6c0.6,0.7,1.4,1,2.3,1
							c0.7,0,1.2-0.1,1.7-0.4s0.9-0.6,1.2-1.1l1.1,0.9C2159.3,371.1,2157.9,371.8,2156.1,371.8z M2155.9,362c-0.8,0-1.4,0.3-1.9,0.8
							c-0.5,0.5-0.8,1.3-1,2.3h5.5v-0.1c-0.1-1-0.3-1.7-0.8-2.2C2157.3,362.2,2156.6,362,2155.9,362z"/>
						<path class="st5" d="M2171.8,366.2c0,1.7-0.4,3-1.2,4s-1.8,1.5-3.1,1.5c-1.4,0-2.4-0.5-3.2-1.5l-0.1,1.3h-1.7V356h1.9v5.8
							c0.8-0.9,1.8-1.4,3.1-1.4s2.4,0.5,3.1,1.5c0.8,1,1.1,2.4,1.1,4.1V366.2z M2169.9,366c0-1.3-0.2-2.3-0.7-3
							c-0.5-0.7-1.2-1-2.1-1c-1.2,0-2.1,0.6-2.7,1.7v4.7c0.6,1.1,1.5,1.7,2.7,1.7c0.9,0,1.6-0.3,2.1-1
							C2169.7,368.4,2169.9,367.4,2169.9,366z"/>
						<path class="st5" d="M2188.7,371.6h-9.6v-1.3l5.1-5.7c0.8-0.9,1.3-1.6,1.6-2.1c0.3-0.5,0.4-1.1,0.4-1.7c0-0.8-0.2-1.4-0.7-1.9
							s-1.1-0.7-1.9-0.7c-0.9,0-1.7,0.3-2.2,0.8c-0.5,0.5-0.8,1.3-0.8,2.2h-1.9c0-1.4,0.4-2.4,1.3-3.3s2-1.3,3.5-1.3
							c1.4,0,2.4,0.4,3.2,1.1c0.8,0.7,1.2,1.7,1.2,2.9c0,1.4-0.9,3.2-2.8,5.2l-3.9,4.3h7.4V371.6z"/>
						<path class="st5" d="M2199.9,365.3c0,2.2-0.4,3.8-1.1,4.9s-1.9,1.6-3.5,1.6c-1.6,0-2.7-0.5-3.5-1.6c-0.8-1-1.1-2.6-1.2-4.7
							V363c0-2.2,0.4-3.8,1.1-4.8s1.9-1.6,3.5-1.6c1.6,0,2.7,0.5,3.5,1.5s1.1,2.6,1.2,4.7V365.3z M2198,362.7c0-1.6-0.2-2.7-0.7-3.5
							c-0.4-0.7-1.1-1.1-2.1-1.1c-1,0-1.7,0.4-2.1,1.1s-0.7,1.8-0.7,3.3v3c0,1.6,0.2,2.8,0.7,3.5c0.5,0.8,1.2,1.1,2.1,1.1
							c0.9,0,1.6-0.4,2.1-1.1s0.7-1.8,0.7-3.4V362.7z"/>
						<path class="st5" d="M2211.9,371.6h-9.6v-1.3l5.1-5.7c0.8-0.9,1.3-1.6,1.6-2.1c0.3-0.5,0.4-1.1,0.4-1.7c0-0.8-0.2-1.4-0.7-1.9
							s-1.1-0.7-1.9-0.7c-0.9,0-1.7,0.3-2.2,0.8c-0.5,0.5-0.8,1.3-0.8,2.2h-1.9c0-1.4,0.4-2.4,1.3-3.3s2-1.3,3.5-1.3
							c1.4,0,2.4,0.4,3.2,1.1c0.8,0.7,1.2,1.7,1.2,2.9c0,1.4-0.9,3.2-2.8,5.2l-3.9,4.3h7.4V371.6z"/>
						<path class="st5" d="M2220.1,371.6h-1.9v-12.5l-3.8,1.4v-1.7l5.4-2h0.3V371.6z"/>
					</g>
				</g>
				<line id="ephQY7FqZmf62" class="st6" x1="2181.5" y1="344" x2="2181.5" y2="326.6"/>
			</g>
			<g id="ephQY7FqZmf63">
				<g id="ephQY7FqZmf64" class="st3">
					<g id="ephQY7FqZmf65" class="st4">
						<path class="st5" d="M2303.3,356.8l4.8,12l4.8-12h2.5v14.7h-1.9v-5.7l0.2-6.2l-4.8,11.9h-1.5l-4.8-11.9l0.2,6.2v5.7h-1.9
							v-14.7H2303.3z"/>
						<path class="st5" d="M2325.3,371.6c-0.1-0.2-0.2-0.6-0.3-1.2c-0.9,0.9-1.9,1.4-3.1,1.4c-1.1,0-2-0.3-2.7-0.9
							c-0.7-0.6-1-1.4-1-2.3c0-1.1,0.4-2,1.3-2.7c0.9-0.6,2.1-0.9,3.7-0.9h1.8v-0.9c0-0.7-0.2-1.2-0.6-1.6c-0.4-0.4-1-0.6-1.7-0.6
							c-0.7,0-1.2,0.2-1.7,0.5c-0.5,0.3-0.7,0.7-0.7,1.2h-1.9c0-0.5,0.2-1.1,0.6-1.6c0.4-0.5,0.9-0.9,1.6-1.2
							c0.7-0.3,1.4-0.4,2.2-0.4c1.3,0,2.2,0.3,3,0.9c0.7,0.6,1.1,1.5,1.1,2.6v5c0,1,0.1,1.8,0.4,2.4v0.2H2325.3z M2322.2,370.1
							c0.6,0,1.1-0.2,1.7-0.5c0.5-0.3,0.9-0.7,1.1-1.2v-2.2h-1.5c-2.3,0-3.4,0.7-3.4,2c0,0.6,0.2,1,0.6,1.4
							S2321.6,370.1,2322.2,370.1z"/>
						<path class="st5" d="M2335.1,362.3c-0.3,0-0.6-0.1-0.9-0.1c-1.2,0-2.1,0.5-2.5,1.6v7.8h-1.9v-10.9h1.8l0,1.3
							c0.6-1,1.5-1.5,2.6-1.5c0.4,0,0.6,0,0.8,0.1V362.3z"/>
						<path class="st5" d="M2351.4,371.6h-9.6v-1.3l5.1-5.7c0.8-0.9,1.3-1.6,1.6-2.1c0.3-0.5,0.4-1.1,0.4-1.7c0-0.8-0.2-1.4-0.7-1.9
							s-1.1-0.7-1.9-0.7c-0.9,0-1.7,0.3-2.2,0.8c-0.5,0.5-0.8,1.3-0.8,2.2h-1.9c0-1.4,0.4-2.4,1.3-3.3c0.9-0.8,2-1.3,3.5-1.3
							c1.4,0,2.4,0.4,3.2,1.1c0.8,0.7,1.2,1.7,1.2,2.9c0,1.4-0.9,3.2-2.8,5.2l-3.9,4.3h7.4V371.6z"/>
						<path class="st5" d="M2362.6,365.3c0,2.2-0.4,3.8-1.1,4.9c-0.7,1.1-1.9,1.6-3.5,1.6c-1.6,0-2.7-0.5-3.5-1.6
							c-0.8-1-1.1-2.6-1.2-4.7V363c0-2.2,0.4-3.8,1.1-4.8c0.7-1.1,1.9-1.6,3.5-1.6c1.6,0,2.7,0.5,3.5,1.5c0.7,1,1.1,2.6,1.2,4.7
							V365.3z M2360.8,362.7c0-1.6-0.2-2.7-0.7-3.5c-0.4-0.7-1.1-1.1-2.1-1.1c-1,0-1.7,0.4-2.1,1.1c-0.4,0.7-0.7,1.8-0.7,3.3v3
							c0,1.6,0.2,2.8,0.7,3.5c0.5,0.8,1.2,1.1,2.1,1.1c0.9,0,1.6-0.4,2.1-1.1c0.4-0.7,0.7-1.8,0.7-3.4V362.7z"/>
						<path class="st5" d="M2374.7,371.6h-9.6v-1.3l5.1-5.7c0.8-0.9,1.3-1.6,1.6-2.1c0.3-0.5,0.4-1.1,0.4-1.7c0-0.8-0.2-1.4-0.7-1.9
							s-1.1-0.7-1.9-0.7c-0.9,0-1.7,0.3-2.2,0.8c-0.5,0.5-0.8,1.3-0.8,2.2h-1.9c0-1.4,0.4-2.4,1.3-3.3c0.9-0.8,2-1.3,3.5-1.3
							c1.4,0,2.4,0.4,3.2,1.1c0.8,0.7,1.2,1.7,1.2,2.9c0,1.4-0.9,3.2-2.8,5.2l-3.9,4.3h7.4V371.6z"/>
						<path class="st5" d="M2382.8,371.6h-1.9v-12.5l-3.8,1.4v-1.7l5.4-2h0.3V371.6z"/>
					</g>
				</g>
				<line id="ephQY7FqZmf66" class="st6" x1="2343.1" y1="344" x2="2343.1" y2="326.6"/>
			</g>
			<g id="ephQY7FqZmf67">
				<g id="ephQY7FqZmf68" class="st3">
					<g id="ephQY7FqZmf69" class="st4">
						<path class="st5" d="M2472.6,367.7h-6.2l-1.4,3.8h-2l5.6-14.7h1.7l5.6,14.7h-2L2472.6,367.7z M2467.1,366.1h5l-2.5-6.9
							L2467.1,366.1z"/>
						<path class="st5" d="M2486.9,366.2c0,1.7-0.4,3-1.1,4c-0.8,1-1.8,1.5-3.1,1.5c-1.3,0-2.4-0.4-3.1-1.3v5.3h-1.9v-15.1h1.7
							l0.1,1.2c0.8-0.9,1.8-1.4,3.2-1.4c1.3,0,2.4,0.5,3.1,1.5s1.1,2.4,1.1,4.1V366.2z M2485.1,366c0-1.2-0.3-2.2-0.8-2.9
							s-1.2-1.1-2.2-1.1c-1.1,0-2,0.5-2.5,1.5v5.2c0.6,1,1.4,1.5,2.6,1.5c0.9,0,1.6-0.4,2.1-1.1
							C2484.8,368.5,2485.1,367.4,2485.1,366z"/>
						<path class="st5" d="M2494.6,362.3c-0.3,0-0.6-0.1-0.9-0.1c-1.2,0-2.1,0.5-2.5,1.6v7.8h-1.9v-10.9h1.8l0,1.3
							c0.6-1,1.5-1.5,2.6-1.5c0.4,0,0.6,0,0.8,0.1V362.3z"/>
						<path class="st5" d="M2510.9,371.6h-9.6v-1.3l5.1-5.7c0.8-0.9,1.3-1.6,1.6-2.1c0.3-0.5,0.4-1.1,0.4-1.7c0-0.8-0.2-1.4-0.7-1.9
							s-1.1-0.7-1.9-0.7c-0.9,0-1.7,0.3-2.2,0.8c-0.5,0.5-0.8,1.3-0.8,2.2h-1.9c0-1.4,0.4-2.4,1.3-3.3s2-1.3,3.5-1.3
							c1.4,0,2.4,0.4,3.2,1.1c0.8,0.7,1.2,1.7,1.2,2.9c0,1.4-0.9,3.2-2.8,5.2l-3.9,4.3h7.4V371.6z"/>
						<path class="st5" d="M2522.1,365.3c0,2.2-0.4,3.8-1.1,4.9s-1.9,1.6-3.5,1.6c-1.6,0-2.7-0.5-3.5-1.6c-0.8-1-1.1-2.6-1.2-4.7
							V363c0-2.2,0.4-3.8,1.1-4.8s1.9-1.6,3.5-1.6c1.6,0,2.7,0.5,3.5,1.5s1.1,2.6,1.2,4.7V365.3z M2520.2,362.7
							c0-1.6-0.2-2.7-0.7-3.5c-0.4-0.7-1.1-1.1-2.1-1.1c-1,0-1.7,0.4-2.1,1.1s-0.7,1.8-0.7,3.3v3c0,1.6,0.2,2.8,0.7,3.5
							c0.5,0.8,1.2,1.1,2.1,1.1c0.9,0,1.6-0.4,2.1-1.1s0.7-1.8,0.7-3.4V362.7z"/>
						<path class="st5" d="M2534.1,371.6h-9.6v-1.3l5.1-5.7c0.8-0.9,1.3-1.6,1.6-2.1c0.3-0.5,0.4-1.1,0.4-1.7c0-0.8-0.2-1.4-0.7-1.9
							s-1.1-0.7-1.9-0.7c-0.9,0-1.7,0.3-2.2,0.8c-0.5,0.5-0.8,1.3-0.8,2.2h-1.9c0-1.4,0.4-2.4,1.3-3.3c0.9-0.8,2-1.3,3.5-1.3
							c1.4,0,2.4,0.4,3.2,1.1c0.8,0.7,1.2,1.7,1.2,2.9c0,1.4-0.9,3.2-2.8,5.2l-3.9,4.3h7.4V371.6z"/>
						<path class="st5" d="M2542.3,371.6h-1.9v-12.5l-3.8,1.4v-1.7l5.4-2h0.3V371.6z"/>
					</g>
				</g>
				<line id="ephQY7FqZmf70" class="st6" x1="2504.7" y1="344" x2="2504.7" y2="326.6"/>
			</g>
			<g id="ephQY7FqZmf71">
				<g id="ephQY7FqZmf72" class="st3">
					<g id="ephQY7FqZmf73" class="st4">
						<path class="st5" d="M2625.1,356.8l4.8,12l4.8-12h2.5v14.7h-1.9v-5.7l0.2-6.2l-4.8,11.9h-1.5l-4.8-11.9l0.2,6.2v5.7h-1.9
							v-14.7H2625.1z"/>
						<path class="st5" d="M2647.1,371.6c-0.1-0.2-0.2-0.6-0.3-1.2c-0.9,0.9-1.9,1.4-3.1,1.4c-1.1,0-2-0.3-2.7-0.9
							c-0.7-0.6-1-1.4-1-2.3c0-1.1,0.4-2,1.3-2.7c0.9-0.6,2.1-0.9,3.7-0.9h1.8v-0.9c0-0.7-0.2-1.2-0.6-1.6c-0.4-0.4-1-0.6-1.7-0.6
							c-0.7,0-1.2,0.2-1.7,0.5c-0.5,0.3-0.7,0.7-0.7,1.2h-1.9c0-0.5,0.2-1.1,0.6-1.6c0.4-0.5,0.9-0.9,1.6-1.2
							c0.7-0.3,1.4-0.4,2.2-0.4c1.3,0,2.2,0.3,3,0.9c0.7,0.6,1.1,1.5,1.1,2.6v5c0,1,0.1,1.8,0.4,2.4v0.2H2647.1z M2644,370.1
							c0.6,0,1.1-0.2,1.7-0.5c0.5-0.3,0.9-0.7,1.1-1.2v-2.2h-1.5c-2.3,0-3.4,0.7-3.4,2c0,0.6,0.2,1,0.6,1.4S2643.4,370.1,2644,370.1
							z"/>
						<path class="st5" d="M2655.2,368.8l2.5-8.2h2l-4.4,12.6c-0.7,1.8-1.8,2.7-3.2,2.7l-0.4,0l-0.7-0.1v-1.5l0.5,0
							c0.6,0,1.1-0.1,1.5-0.4s0.6-0.7,0.9-1.4l0.4-1.1l-3.9-10.8h2L2655.2,368.8z"/>
						<path class="st5" d="M2676,371.6h-9.6v-1.3l5.1-5.7c0.8-0.9,1.3-1.6,1.6-2.1c0.3-0.5,0.4-1.1,0.4-1.7c0-0.8-0.2-1.4-0.7-1.9
							s-1.1-0.7-1.9-0.7c-0.9,0-1.7,0.3-2.2,0.8c-0.5,0.5-0.8,1.3-0.8,2.2h-1.9c0-1.4,0.4-2.4,1.3-3.3c0.9-0.8,2-1.3,3.5-1.3
							c1.4,0,2.4,0.4,3.2,1.1c0.8,0.7,1.2,1.7,1.2,2.9c0,1.4-0.9,3.2-2.8,5.2l-3.9,4.3h7.4V371.6z"/>
						<path class="st5" d="M2687.2,365.3c0,2.2-0.4,3.8-1.1,4.9c-0.7,1.1-1.9,1.6-3.5,1.6c-1.6,0-2.7-0.5-3.5-1.6
							c-0.8-1-1.1-2.6-1.2-4.7V363c0-2.2,0.4-3.8,1.1-4.8c0.7-1.1,1.9-1.6,3.5-1.6c1.6,0,2.7,0.5,3.5,1.5s1.1,2.6,1.2,4.7V365.3z
							 M2685.3,362.7c0-1.6-0.2-2.7-0.7-3.5c-0.4-0.7-1.1-1.1-2.1-1.1c-1,0-1.7,0.4-2.1,1.1s-0.7,1.8-0.7,3.3v3
							c0,1.6,0.2,2.8,0.7,3.5c0.5,0.8,1.2,1.1,2.1,1.1c0.9,0,1.6-0.4,2.1-1.1c0.4-0.7,0.7-1.8,0.7-3.4V362.7z"/>
						<path class="st5" d="M2699.2,371.6h-9.6v-1.3l5.1-5.7c0.8-0.9,1.3-1.6,1.6-2.1c0.3-0.5,0.4-1.1,0.4-1.7c0-0.8-0.2-1.4-0.7-1.9
							s-1.1-0.7-1.9-0.7c-0.9,0-1.7,0.3-2.2,0.8c-0.5,0.5-0.8,1.3-0.8,2.2h-1.9c0-1.4,0.4-2.4,1.3-3.3c0.9-0.8,2-1.3,3.5-1.3
							c1.4,0,2.4,0.4,3.2,1.1c0.8,0.7,1.2,1.7,1.2,2.9c0,1.4-0.9,3.2-2.8,5.2l-3.9,4.3h7.4V371.6z"/>
						<path class="st5" d="M2707.3,371.6h-1.9v-12.5l-3.8,1.4v-1.7l5.4-2h0.3V371.6z"/>
					</g>
				</g>
				<line id="ephQY7FqZmf74" class="st6" x1="2666.2" y1="344" x2="2666.2" y2="326.6"/>
			</g>
			<g id="ephQY7FqZmf75">
				<g id="ephQY7FqZmf76" class="st3">
					<g id="ephQY7FqZmf77" class="st4">
						<path class="st5" d="M2792.8,356.8h1.9v10.4c0,1.4-0.4,2.5-1.3,3.3s-2,1.2-3.4,1.2c-1.5,0-2.6-0.4-3.4-1.1
							c-0.8-0.7-1.2-1.8-1.2-3.1h1.9c0,0.8,0.2,1.5,0.7,2c0.5,0.5,1.1,0.7,2,0.7c0.8,0,1.5-0.3,1.9-0.8c0.5-0.5,0.7-1.2,0.8-2.1
							V356.8z"/>
						<path class="st5" d="M2804.5,370.5c-0.7,0.9-1.8,1.3-3.2,1.3c-1.2,0-2.1-0.3-2.7-1c-0.6-0.7-0.9-1.7-0.9-3v-7.1h1.9v7.1
							c0,1.7,0.7,2.5,2,2.5c1.4,0,2.4-0.5,2.8-1.6v-8h1.9v10.9h-1.8L2804.5,370.5z"/>
						<path class="st5" d="M2810.9,360.6l0.1,1.4c0.8-1.1,1.9-1.6,3.3-1.6c2.3,0,3.5,1.3,3.5,3.9v7.2h-1.9v-7.2
							c0-0.8-0.2-1.4-0.5-1.7c-0.4-0.4-0.9-0.6-1.7-0.6c-0.6,0-1.1,0.2-1.6,0.5c-0.5,0.3-0.8,0.7-1.1,1.3v7.8h-1.9v-10.9H2810.9z"/>
						<path class="st5" d="M2835.1,371.6h-9.6v-1.3l5.1-5.7c0.8-0.9,1.3-1.6,1.6-2.1c0.3-0.5,0.4-1.1,0.4-1.7c0-0.8-0.2-1.4-0.7-1.9
							s-1.1-0.7-1.9-0.7c-0.9,0-1.7,0.3-2.2,0.8c-0.5,0.5-0.8,1.3-0.8,2.2h-1.9c0-1.4,0.4-2.4,1.3-3.3s2-1.3,3.5-1.3
							c1.4,0,2.4,0.4,3.2,1.1c0.8,0.7,1.2,1.7,1.2,2.9c0,1.4-0.9,3.2-2.8,5.2l-3.9,4.3h7.4V371.6z"/>
						<path class="st5" d="M2846.3,365.3c0,2.2-0.4,3.8-1.1,4.9s-1.9,1.6-3.5,1.6c-1.6,0-2.7-0.5-3.5-1.6c-0.8-1-1.1-2.6-1.2-4.7
							V363c0-2.2,0.4-3.8,1.1-4.8s1.9-1.6,3.5-1.6c1.6,0,2.7,0.5,3.5,1.5c0.7,1,1.1,2.6,1.2,4.7V365.3z M2844.4,362.7
							c0-1.6-0.2-2.7-0.7-3.5c-0.4-0.7-1.1-1.1-2.1-1.1c-1,0-1.7,0.4-2.1,1.1c-0.4,0.7-0.7,1.8-0.7,3.3v3c0,1.6,0.2,2.8,0.7,3.5
							c0.5,0.8,1.2,1.1,2.1,1.1c0.9,0,1.6-0.4,2.1-1.1c0.4-0.7,0.7-1.8,0.7-3.4V362.7z"/>
						<path class="st5" d="M2858.3,371.6h-9.6v-1.3l5.1-5.7c0.8-0.9,1.3-1.6,1.6-2.1c0.3-0.5,0.4-1.1,0.4-1.7c0-0.8-0.2-1.4-0.7-1.9
							s-1.1-0.7-1.9-0.7c-0.9,0-1.7,0.3-2.2,0.8c-0.5,0.5-0.8,1.3-0.8,2.2h-1.9c0-1.4,0.4-2.4,1.3-3.3s2-1.3,3.5-1.3
							c1.4,0,2.4,0.4,3.2,1.1c0.8,0.7,1.2,1.7,1.2,2.9c0,1.4-0.9,3.2-2.8,5.2l-3.9,4.3h7.4V371.6z"/>
						<path class="st5" d="M2866.5,371.6h-1.9v-12.5l-3.8,1.4v-1.7l5.4-2h0.3V371.6z"/>
					</g>
				</g>
				<line id="ephQY7FqZmf78" class="st6" x1="2827.8" y1="344" x2="2827.8" y2="326.6"/>
			</g>
			<g id="ephQY7FqZmf79">
				<g id="ephQY7FqZmf80" class="st3">
					<g id="ephQY7FqZmf81" class="st4">
						<path class="st5" d="M2957.5,356.8h2v10.4c0,1.4-0.4,2.5-1.3,3.3s-2,1.2-3.4,1.2c-1.5,0-2.6-0.4-3.4-1.1
							c-0.8-0.7-1.2-1.8-1.2-3.1h1.9c0,0.8,0.2,1.5,0.7,2c0.5,0.5,1.1,0.7,2,0.7c0.8,0,1.5-0.3,1.9-0.8c0.5-0.5,0.7-1.2,0.8-2.1
							V356.8z"/>
						<path class="st5" d="M2969.2,370.5c-0.7,0.9-1.8,1.3-3.2,1.3c-1.2,0-2.1-0.3-2.7-1c-0.6-0.7-0.9-1.7-0.9-3v-7.1h1.9v7.1
							c0,1.7,0.7,2.5,2,2.5c1.4,0,2.4-0.5,2.8-1.6v-8h1.9v10.9h-1.8L2969.2,370.5z"/>
						<path class="st5" d="M2975.9,371.6h-1.9V356h1.9V371.6z"/>
						<path class="st5" d="M2993.5,371.6h-9.6v-1.3l5.1-5.7c0.8-0.9,1.3-1.6,1.6-2.1c0.3-0.5,0.4-1.1,0.4-1.7c0-0.8-0.2-1.4-0.7-1.9
							s-1.1-0.7-1.9-0.7c-0.9,0-1.7,0.3-2.2,0.8c-0.5,0.5-0.8,1.3-0.8,2.2h-1.9c0-1.4,0.4-2.4,1.3-3.3c0.9-0.8,2-1.3,3.5-1.3
							c1.4,0,2.4,0.4,3.2,1.1c0.8,0.7,1.2,1.7,1.2,2.9c0,1.4-0.9,3.2-2.8,5.2l-3.9,4.3h7.4V371.6z"/>
						<path class="st5" d="M3004.7,365.3c0,2.2-0.4,3.8-1.1,4.9c-0.7,1.1-1.9,1.6-3.5,1.6c-1.6,0-2.7-0.5-3.5-1.6
							c-0.8-1-1.1-2.6-1.2-4.7V363c0-2.2,0.4-3.8,1.1-4.8c0.7-1.1,1.9-1.6,3.5-1.6c1.6,0,2.7,0.5,3.5,1.5s1.1,2.6,1.2,4.7V365.3z
							 M3002.8,362.7c0-1.6-0.2-2.7-0.7-3.5c-0.4-0.7-1.1-1.1-2.1-1.1c-1,0-1.7,0.4-2.1,1.1s-0.7,1.8-0.7,3.3v3
							c0,1.6,0.2,2.8,0.7,3.5c0.5,0.8,1.2,1.1,2.1,1.1c0.9,0,1.6-0.4,2.1-1.1c0.4-0.7,0.7-1.8,0.7-3.4V362.7z"/>
						<path class="st5" d="M3016.7,371.6h-9.6v-1.3l5.1-5.7c0.8-0.9,1.3-1.6,1.6-2.1c0.3-0.5,0.4-1.1,0.4-1.7c0-0.8-0.2-1.4-0.7-1.9
							s-1.1-0.7-1.9-0.7c-0.9,0-1.7,0.3-2.2,0.8c-0.5,0.5-0.8,1.3-0.8,2.2h-1.9c0-1.4,0.4-2.4,1.3-3.3c0.9-0.8,2-1.3,3.5-1.3
							c1.4,0,2.4,0.4,3.2,1.1c0.8,0.7,1.2,1.7,1.2,2.9c0,1.4-0.9,3.2-2.8,5.2l-3.9,4.3h7.4V371.6z"/>
						<path class="st5" d="M3024.8,371.6h-1.9v-12.5l-3.8,1.4v-1.7l5.4-2h0.3V371.6z"/>
					</g>
				</g>
				<line id="ephQY7FqZmf82" class="st6" x1="2989.4" y1="344" x2="2989.4" y2="326.6"/>
			</g>
			<g id="ephQY7FqZmf83">
				<g id="ephQY7FqZmf84" class="st3">
					<g id="ephQY7FqZmf85" class="st4">
						<path class="st5" d="M3116.7,367.7h-6.2l-1.4,3.8h-2l5.6-14.7h1.7l5.6,14.7h-2L3116.7,367.7z M3111.1,366.1h5l-2.5-6.9
							L3111.1,366.1z"/>
						<path class="st5" d="M3128.4,370.5c-0.7,0.9-1.8,1.3-3.2,1.3c-1.2,0-2.1-0.3-2.7-1s-0.9-1.7-0.9-3v-7.1h1.9v7.1
							c0,1.7,0.7,2.5,2,2.5c1.4,0,2.4-0.5,2.8-1.6v-8h1.9v10.9h-1.8L3128.4,370.5z"/>
						<path class="st5" d="M3132.7,366c0-1.7,0.4-3.1,1.2-4.1c0.8-1,1.8-1.5,3.1-1.5c1.3,0,2.4,0.5,3.1,1.4l0.1-1.2h1.7v10.7
							c0,1.4-0.4,2.5-1.3,3.3c-0.8,0.8-2,1.2-3.4,1.2c-0.8,0-1.6-0.2-2.3-0.5c-0.8-0.3-1.3-0.8-1.7-1.4l1-1.1c0.8,1,1.8,1.5,2.9,1.5
							c0.9,0,1.6-0.3,2.1-0.8c0.5-0.5,0.8-1.2,0.8-2.2v-0.9c-0.7,0.9-1.8,1.3-3.1,1.3c-1.3,0-2.3-0.5-3.1-1.5
							C3133.1,369.2,3132.7,367.8,3132.7,366z M3134.5,366.2c0,1.2,0.3,2.2,0.8,2.9c0.5,0.7,1.2,1.1,2.1,1.1c1.2,0,2-0.5,2.6-1.6v-5
							c-0.6-1-1.4-1.6-2.6-1.6c-0.9,0-1.6,0.4-2.1,1.1C3134.8,363.8,3134.5,364.8,3134.5,366.2z"/>
						<path class="st5" d="M3159.3,371.6h-9.6v-1.3l5.1-5.7c0.8-0.9,1.3-1.6,1.6-2.1c0.3-0.5,0.4-1.1,0.4-1.7c0-0.8-0.2-1.4-0.7-1.9
							s-1.1-0.7-1.9-0.7c-0.9,0-1.7,0.3-2.2,0.8c-0.5,0.5-0.8,1.3-0.8,2.2h-1.9c0-1.4,0.4-2.4,1.3-3.3c0.9-0.8,2-1.3,3.5-1.3
							c1.4,0,2.4,0.4,3.2,1.1c0.8,0.7,1.2,1.7,1.2,2.9c0,1.4-0.9,3.2-2.8,5.2l-3.9,4.3h7.4V371.6z"/>
						<path class="st5" d="M3170.5,365.3c0,2.2-0.4,3.8-1.1,4.9c-0.7,1.1-1.9,1.6-3.5,1.6c-1.6,0-2.7-0.5-3.5-1.6
							c-0.8-1-1.1-2.6-1.2-4.7V363c0-2.2,0.4-3.8,1.1-4.8c0.7-1.1,1.9-1.6,3.5-1.6c1.6,0,2.7,0.5,3.5,1.5c0.7,1,1.1,2.6,1.2,4.7
							V365.3z M3168.6,362.7c0-1.6-0.2-2.7-0.7-3.5c-0.4-0.7-1.1-1.1-2.1-1.1c-1,0-1.7,0.4-2.1,1.1c-0.4,0.7-0.7,1.8-0.7,3.3v3
							c0,1.6,0.2,2.8,0.7,3.5c0.5,0.8,1.2,1.1,2.1,1.1c0.9,0,1.6-0.4,2.1-1.1c0.4-0.7,0.7-1.8,0.7-3.4V362.7z"/>
						<path class="st5" d="M3182.5,371.6h-9.6v-1.3l5.1-5.7c0.8-0.9,1.3-1.6,1.6-2.1c0.3-0.5,0.4-1.1,0.4-1.7c0-0.8-0.2-1.4-0.7-1.9
							s-1.1-0.7-1.9-0.7c-0.9,0-1.7,0.3-2.2,0.8c-0.5,0.5-0.8,1.3-0.8,2.2h-1.9c0-1.4,0.4-2.4,1.3-3.3c0.9-0.8,2-1.3,3.5-1.3
							c1.4,0,2.4,0.4,3.2,1.1c0.8,0.7,1.2,1.7,1.2,2.9c0,1.4-0.9,3.2-2.8,5.2l-3.9,4.3h7.4V371.6z"/>
						<path class="st5" d="M3190.6,371.6h-1.9v-12.5l-3.8,1.4v-1.7l5.4-2h0.3V371.6z"/>
					</g>
				</g>
				<line id="ephQY7FqZmf86" class="st6" x1="3151" y1="344" x2="3151" y2="326.6"/>
			</g>
			<g id="ephQY7FqZmf87">
				<g id="ephQY7FqZmf88" class="st3">
					<g id="ephQY7FqZmf89" class="st4">
						<path class="st5" d="M3275.3,365c-1.7-0.5-2.9-1.1-3.6-1.8s-1.1-1.6-1.1-2.6c0-1.2,0.5-2.1,1.4-2.9c0.9-0.8,2.1-1.1,3.6-1.1
							c1,0,1.9,0.2,2.7,0.6c0.8,0.4,1.4,0.9,1.8,1.6c0.4,0.7,0.7,1.4,0.7,2.3h-2c0-0.9-0.3-1.6-0.8-2.1c-0.6-0.5-1.4-0.8-2.4-0.8
							c-1,0-1.7,0.2-2.2,0.6c-0.5,0.4-0.8,1-0.8,1.8c0,0.6,0.3,1.1,0.8,1.5c0.5,0.4,1.4,0.8,2.6,1.1c1.2,0.3,2.2,0.7,2.9,1.1
							s1.2,0.9,1.5,1.5c0.3,0.6,0.5,1.2,0.5,2c0,1.2-0.5,2.1-1.4,2.9s-2.2,1.1-3.7,1.1c-1,0-2-0.2-2.8-0.6s-1.6-0.9-2-1.6
							c-0.5-0.7-0.7-1.4-0.7-2.3h2c0,0.9,0.3,1.6,1,2.1c0.7,0.5,1.5,0.8,2.6,0.8c1,0,1.8-0.2,2.4-0.6s0.8-1,0.8-1.7
							s-0.3-1.3-0.8-1.7C3277.6,365.8,3276.7,365.4,3275.3,365z"/>
						<path class="st5" d="M3287.5,371.8c-1.5,0-2.7-0.5-3.6-1.5s-1.4-2.3-1.4-3.9V366c0-1.1,0.2-2.1,0.6-2.9c0.4-0.9,1-1.5,1.7-2
							c0.7-0.5,1.6-0.7,2.4-0.7c1.4,0,2.5,0.5,3.3,1.4s1.2,2.3,1.2,4v0.8h-7.4c0,1.1,0.3,1.9,0.9,2.6c0.6,0.7,1.4,1,2.3,1
							c0.7,0,1.2-0.1,1.7-0.4s0.9-0.6,1.2-1.1l1.1,0.9C3290.7,371.1,3289.4,371.8,3287.5,371.8z M3287.3,362c-0.8,0-1.4,0.3-1.9,0.8
							c-0.5,0.5-0.8,1.3-1,2.3h5.5v-0.1c-0.1-1-0.3-1.7-0.8-2.2C3288.7,362.2,3288.1,362,3287.3,362z"/>
						<path class="st5" d="M3303.2,366.2c0,1.7-0.4,3-1.1,4c-0.8,1-1.8,1.5-3.1,1.5c-1.3,0-2.4-0.4-3.1-1.3v5.3h-1.9v-15.1h1.7
							l0.1,1.2c0.8-0.9,1.8-1.4,3.2-1.4c1.3,0,2.4,0.5,3.1,1.5c0.8,1,1.1,2.4,1.1,4.1V366.2z M3301.3,366c0-1.2-0.3-2.2-0.8-2.9
							s-1.2-1.1-2.2-1.1c-1.1,0-2,0.5-2.5,1.5v5.2c0.6,1,1.4,1.5,2.6,1.5c0.9,0,1.6-0.4,2.1-1.1
							C3301.1,368.5,3301.3,367.4,3301.3,366z"/>
						<path class="st5" d="M3320.1,371.6h-9.6v-1.3l5.1-5.7c0.8-0.9,1.3-1.6,1.6-2.1c0.3-0.5,0.4-1.1,0.4-1.7c0-0.8-0.2-1.4-0.7-1.9
							s-1.1-0.7-1.9-0.7c-0.9,0-1.7,0.3-2.2,0.8c-0.5,0.5-0.8,1.3-0.8,2.2h-1.9c0-1.4,0.4-2.4,1.3-3.3s2-1.3,3.5-1.3
							c1.4,0,2.4,0.4,3.2,1.1c0.8,0.7,1.2,1.7,1.2,2.9c0,1.4-0.9,3.2-2.8,5.2l-3.9,4.3h7.4V371.6z"/>
						<path class="st5" d="M3331.3,365.3c0,2.2-0.4,3.8-1.1,4.9c-0.7,1.1-1.9,1.6-3.5,1.6c-1.6,0-2.7-0.5-3.5-1.6
							c-0.8-1-1.1-2.6-1.2-4.7V363c0-2.2,0.4-3.8,1.1-4.8c0.7-1.1,1.9-1.6,3.5-1.6c1.6,0,2.7,0.5,3.5,1.5c0.7,1,1.1,2.6,1.2,4.7
							V365.3z M3329.5,362.7c0-1.6-0.2-2.7-0.7-3.5c-0.4-0.7-1.1-1.1-2.1-1.1c-1,0-1.7,0.4-2.1,1.1c-0.4,0.7-0.7,1.8-0.7,3.3v3
							c0,1.6,0.2,2.8,0.7,3.5c0.5,0.8,1.2,1.1,2.1,1.1c0.9,0,1.6-0.4,2.1-1.1c0.4-0.7,0.7-1.8,0.7-3.4V362.7z"/>
						<path class="st5" d="M3343.4,371.6h-9.6v-1.3l5.1-5.7c0.8-0.9,1.3-1.6,1.6-2.1c0.3-0.5,0.4-1.1,0.4-1.7c0-0.8-0.2-1.4-0.7-1.9
							s-1.1-0.7-1.9-0.7c-0.9,0-1.7,0.3-2.2,0.8c-0.5,0.5-0.8,1.3-0.8,2.2h-1.9c0-1.4,0.4-2.4,1.3-3.3c0.9-0.8,2-1.3,3.5-1.3
							c1.4,0,2.4,0.4,3.2,1.1c0.8,0.7,1.2,1.7,1.2,2.9c0,1.4-0.9,3.2-2.8,5.2l-3.9,4.3h7.4V371.6z"/>
						<path class="st5" d="M3351.5,371.6h-1.9v-12.5l-3.8,1.4v-1.7l5.4-2h0.3V371.6z"/>
					</g>
				</g>
				<line id="ephQY7FqZmf90" class="st6" x1="3312.5" y1="344" x2="3312.5" y2="326.6"/>
			</g>
			<g id="ephQY7FqZmf91">
				<g id="ephQY7FqZmf92" class="st3">
					<g id="ephQY7FqZmf93" class="st4">
						<path class="st5" d="M3445.4,364.7c0,1.4-0.2,2.7-0.7,3.8c-0.5,1.1-1.2,1.9-2.1,2.5c-0.9,0.6-1.9,0.8-3.1,0.8
							c-1.2,0-2.2-0.3-3.1-0.9s-1.6-1.4-2.1-2.4c-0.5-1.1-0.7-2.3-0.8-3.7v-1.1c0-1.4,0.2-2.7,0.7-3.7c0.5-1.1,1.2-1.9,2.1-2.5
							c0.9-0.6,1.9-0.9,3.1-0.9c1.2,0,2.2,0.3,3.1,0.9s1.6,1.4,2.1,2.5c0.5,1.1,0.7,2.3,0.7,3.8V364.7z M3443.5,363.7
							c0-1.7-0.3-3.1-1.1-4c-0.7-0.9-1.7-1.4-2.9-1.4c-1.2,0-2.2,0.5-2.9,1.4c-0.7,0.9-1.1,2.2-1.1,3.9v1.1c0,1.7,0.4,3,1.1,4
							s1.7,1.4,2.9,1.4c1.3,0,2.2-0.5,2.9-1.4c0.7-0.9,1-2.2,1.1-3.9V363.7z"/>
						<path class="st5" d="M3452.4,370.2c0.7,0,1.2-0.2,1.7-0.6c0.5-0.4,0.8-0.9,0.8-1.5h1.8c0,0.6-0.2,1.2-0.6,1.8
							c-0.4,0.6-0.9,1-1.6,1.4c-0.7,0.3-1.4,0.5-2.1,0.5c-1.5,0-2.7-0.5-3.6-1.5c-0.9-1-1.3-2.4-1.3-4.1v-0.3c0-1.1,0.2-2,0.6-2.8
							c0.4-0.8,1-1.5,1.7-1.9c0.7-0.5,1.6-0.7,2.6-0.7c1.2,0,2.2,0.4,3.1,1.1c0.8,0.7,1.2,1.7,1.3,2.9h-1.8
							c-0.1-0.7-0.3-1.3-0.8-1.7c-0.5-0.5-1.1-0.7-1.8-0.7c-1,0-1.7,0.3-2.2,1c-0.5,0.7-0.8,1.7-0.8,3v0.4c0,1.3,0.3,2.2,0.8,2.9
							C3450.7,369.9,3451.5,370.2,3452.4,370.2z"/>
						<path class="st5" d="M3461.4,358v2.6h2v1.4h-2v6.8c0,0.4,0.1,0.8,0.3,1c0.2,0.2,0.5,0.3,0.9,0.3c0.2,0,0.5,0,0.9-0.1v1.5
							c-0.5,0.1-1,0.2-1.4,0.2c-0.8,0-1.5-0.3-1.9-0.8c-0.4-0.5-0.6-1.2-0.6-2.2v-6.8h-2v-1.4h2V358H3461.4z"/>
						<path class="st5" d="M3480.2,371.6h-9.6v-1.3l5.1-5.7c0.8-0.9,1.3-1.6,1.6-2.1c0.3-0.5,0.4-1.1,0.4-1.7c0-0.8-0.2-1.4-0.7-1.9
							s-1.1-0.7-1.9-0.7c-0.9,0-1.7,0.3-2.2,0.8c-0.5,0.5-0.8,1.3-0.8,2.2h-1.9c0-1.4,0.4-2.4,1.3-3.3s2-1.3,3.5-1.3
							c1.4,0,2.4,0.4,3.2,1.1c0.8,0.7,1.2,1.7,1.2,2.9c0,1.4-0.9,3.2-2.8,5.2l-3.9,4.3h7.4V371.6z"/>
						<path class="st5" d="M3491.4,365.3c0,2.2-0.4,3.8-1.1,4.9s-1.9,1.6-3.5,1.6c-1.6,0-2.7-0.5-3.5-1.6c-0.8-1-1.1-2.6-1.2-4.7
							V363c0-2.2,0.4-3.8,1.1-4.8s1.9-1.6,3.5-1.6c1.6,0,2.7,0.5,3.5,1.5s1.1,2.6,1.2,4.7V365.3z M3489.5,362.7
							c0-1.6-0.2-2.7-0.7-3.5c-0.4-0.7-1.1-1.1-2.1-1.1c-1,0-1.7,0.4-2.1,1.1s-0.7,1.8-0.7,3.3v3c0,1.6,0.2,2.8,0.7,3.5
							c0.5,0.8,1.2,1.1,2.1,1.1c0.9,0,1.6-0.4,2.1-1.1s0.7-1.8,0.7-3.4V362.7z"/>
						<path class="st5" d="M3503.4,371.6h-9.6v-1.3l5.1-5.7c0.8-0.9,1.3-1.6,1.6-2.1c0.3-0.5,0.4-1.1,0.4-1.7c0-0.8-0.2-1.4-0.7-1.9
							s-1.1-0.7-1.9-0.7c-0.9,0-1.7,0.3-2.2,0.8c-0.5,0.5-0.8,1.3-0.8,2.2h-1.9c0-1.4,0.4-2.4,1.3-3.3s2-1.3,3.5-1.3
							c1.4,0,2.4,0.4,3.2,1.1c0.8,0.7,1.2,1.7,1.2,2.9c0,1.4-0.9,3.2-2.8,5.2l-3.9,4.3h7.4V371.6z"/>
						<path class="st5" d="M3511.6,371.6h-1.9v-12.5l-3.8,1.4v-1.7l5.4-2h0.3V371.6z"/>
					</g>
				</g>
				<line id="ephQY7FqZmf94" class="st6" x1="3474.1" y1="344" x2="3474.1" y2="326.6"/>
			</g>
			<g id="ephQY7FqZmf95">
				<g id="ephQY7FqZmf96" class="st3">
					<g id="ephQY7FqZmf97" class="st4">
						<path class="st5" d="M3604.6,371.6h-2l-7.4-11.3v11.3h-2v-14.7h2l7.4,11.4v-11.4h1.9V371.6z"/>
						<path class="st5" d="M3607.3,366c0-1.1,0.2-2,0.6-2.9s1-1.5,1.8-2s1.6-0.7,2.6-0.7c1.5,0,2.7,0.5,3.6,1.5
							c0.9,1,1.4,2.4,1.4,4.1v0.1c0,1.1-0.2,2-0.6,2.9s-1,1.5-1.7,2s-1.6,0.7-2.6,0.7c-1.5,0-2.7-0.5-3.6-1.5
							c-0.9-1-1.4-2.4-1.4-4.1V366z M3609.1,366.2c0,1.2,0.3,2.2,0.8,2.9s1.3,1.1,2.3,1.1c1,0,1.7-0.4,2.3-1.1s0.8-1.8,0.8-3.1
							c0-1.2-0.3-2.2-0.9-2.9c-0.6-0.7-1.3-1.1-2.3-1.1c-0.9,0-1.7,0.4-2.2,1.1S3609.1,364.8,3609.1,366.2z"/>
						<path class="st5" d="M3623,369l2.7-8.4h1.9l-3.9,10.9h-1.4l-4-10.9h1.9L3623,369z"/>
						<path class="st5" d="M3644,371.6h-9.6v-1.3l5.1-5.7c0.8-0.9,1.3-1.6,1.6-2.1c0.3-0.5,0.4-1.1,0.4-1.7c0-0.8-0.2-1.4-0.7-1.9
							s-1.1-0.7-1.9-0.7c-0.9,0-1.7,0.3-2.2,0.8c-0.5,0.5-0.8,1.3-0.8,2.2h-1.9c0-1.4,0.4-2.4,1.3-3.3c0.9-0.8,2-1.3,3.5-1.3
							c1.4,0,2.4,0.4,3.2,1.1c0.8,0.7,1.2,1.7,1.2,2.9c0,1.4-0.9,3.2-2.8,5.2l-3.9,4.3h7.4V371.6z"/>
						<path class="st5" d="M3655.2,365.3c0,2.2-0.4,3.8-1.1,4.9c-0.7,1.1-1.9,1.6-3.5,1.6c-1.6,0-2.7-0.5-3.5-1.6
							c-0.8-1-1.1-2.6-1.2-4.7V363c0-2.2,0.4-3.8,1.1-4.8c0.7-1.1,1.9-1.6,3.5-1.6c1.6,0,2.7,0.5,3.5,1.5c0.7,1,1.1,2.6,1.2,4.7
							V365.3z M3653.3,362.7c0-1.6-0.2-2.7-0.7-3.5c-0.4-0.7-1.1-1.1-2.1-1.1c-1,0-1.7,0.4-2.1,1.1c-0.4,0.7-0.7,1.8-0.7,3.3v3
							c0,1.6,0.2,2.8,0.7,3.5c0.5,0.8,1.2,1.1,2.1,1.1c0.9,0,1.6-0.4,2.1-1.1c0.4-0.7,0.7-1.8,0.7-3.4V362.7z"/>
						<path class="st5" d="M3667.2,371.6h-9.6v-1.3l5.1-5.7c0.8-0.9,1.3-1.6,1.6-2.1c0.3-0.5,0.4-1.1,0.4-1.7c0-0.8-0.2-1.4-0.7-1.9
							s-1.1-0.7-1.9-0.7c-0.9,0-1.7,0.3-2.2,0.8c-0.5,0.5-0.8,1.3-0.8,2.2h-1.9c0-1.4,0.4-2.4,1.3-3.3c0.9-0.8,2-1.3,3.5-1.3
							c1.4,0,2.4,0.4,3.2,1.1c0.8,0.7,1.2,1.7,1.2,2.9c0,1.4-0.9,3.2-2.8,5.2l-3.9,4.3h7.4V371.6z"/>
						<path class="st5" d="M3675.4,371.6h-1.9v-12.5l-3.8,1.4v-1.7l5.4-2h0.3V371.6z"/>
					</g>
				</g>
				<line id="ephQY7FqZmf98" class="st6" x1="3635.7" y1="344" x2="3635.7" y2="326.6"/>
			</g>
			<g id="ephQY7FqZmf99">
				<g id="ephQY7FqZmf100" class="st3">
					<g id="ephQY7FqZmf101" class="st4">
						<path class="st5" d="M3755.5,371.6v-14.7h4.2c1.3,0,2.4,0.3,3.4,0.8c1,0.6,1.7,1.4,2.3,2.4c0.5,1,0.8,2.2,0.8,3.6v0.9
							c0,1.4-0.3,2.6-0.8,3.6s-1.3,1.8-2.3,2.4c-1,0.6-2.2,0.8-3.5,0.9H3755.5z M3757.4,358.4V370h2c1.5,0,2.7-0.5,3.5-1.4
							c0.8-0.9,1.2-2.3,1.2-4v-0.9c0-1.7-0.4-3-1.2-3.9s-1.9-1.4-3.3-1.4H3757.4z"/>
						<path class="st5" d="M3773.3,371.8c-1.5,0-2.7-0.5-3.6-1.5s-1.4-2.3-1.4-3.9V366c0-1.1,0.2-2.1,0.6-2.9c0.4-0.9,1-1.5,1.7-2
							c0.7-0.5,1.6-0.7,2.4-0.7c1.4,0,2.5,0.5,3.3,1.4c0.8,0.9,1.2,2.3,1.2,4v0.8h-7.4c0,1.1,0.3,1.9,0.9,2.6c0.6,0.7,1.4,1,2.3,1
							c0.7,0,1.2-0.1,1.7-0.4s0.9-0.6,1.2-1.1l1.1,0.9C3776.5,371.1,3775.1,371.8,3773.3,371.8z M3773.1,362c-0.8,0-1.4,0.3-1.9,0.8
							c-0.5,0.5-0.8,1.3-1,2.3h5.5v-0.1c-0.1-1-0.3-1.7-0.8-2.2C3774.5,362.2,3773.8,362,3773.1,362z"/>
						<path class="st5" d="M3784.1,370.2c0.7,0,1.2-0.2,1.7-0.6s0.8-0.9,0.8-1.5h1.8c0,0.6-0.2,1.2-0.6,1.8c-0.4,0.6-0.9,1-1.6,1.4
							c-0.7,0.3-1.4,0.5-2.1,0.5c-1.5,0-2.7-0.5-3.6-1.5c-0.9-1-1.3-2.4-1.3-4.1v-0.3c0-1.1,0.2-2,0.6-2.8c0.4-0.8,1-1.5,1.7-1.9
							s1.6-0.7,2.6-0.7c1.2,0,2.2,0.4,3.1,1.1c0.8,0.7,1.2,1.7,1.3,2.9h-1.8c-0.1-0.7-0.3-1.3-0.8-1.7c-0.5-0.5-1.1-0.7-1.8-0.7
							c-1,0-1.7,0.3-2.2,1s-0.8,1.7-0.8,3v0.4c0,1.3,0.3,2.2,0.8,2.9C3782.4,369.9,3783.1,370.2,3784.1,370.2z"/>
						<path class="st5" d="M3805.1,371.6h-9.6v-1.3l5.1-5.7c0.8-0.9,1.3-1.6,1.6-2.1c0.3-0.5,0.4-1.1,0.4-1.7c0-0.8-0.2-1.4-0.7-1.9
							s-1.1-0.7-1.9-0.7c-0.9,0-1.7,0.3-2.2,0.8c-0.5,0.5-0.8,1.3-0.8,2.2h-1.9c0-1.4,0.4-2.4,1.3-3.3s2-1.3,3.5-1.3
							c1.4,0,2.4,0.4,3.2,1.1c0.8,0.7,1.2,1.7,1.2,2.9c0,1.4-0.9,3.2-2.8,5.2l-3.9,4.3h7.4V371.6z"/>
						<path class="st5" d="M3816.3,365.3c0,2.2-0.4,3.8-1.1,4.9s-1.9,1.6-3.5,1.6c-1.6,0-2.7-0.5-3.5-1.6c-0.8-1-1.1-2.6-1.2-4.7
							V363c0-2.2,0.4-3.8,1.1-4.8s1.9-1.6,3.5-1.6c1.6,0,2.7,0.5,3.5,1.5c0.7,1,1.1,2.6,1.2,4.7V365.3z M3814.5,362.7
							c0-1.6-0.2-2.7-0.7-3.5c-0.4-0.7-1.1-1.1-2.1-1.1c-1,0-1.7,0.4-2.1,1.1c-0.4,0.7-0.7,1.8-0.7,3.3v3c0,1.6,0.2,2.8,0.7,3.5
							c0.5,0.8,1.2,1.1,2.1,1.1c0.9,0,1.6-0.4,2.1-1.1c0.4-0.7,0.7-1.8,0.7-3.4V362.7z"/>
						<path class="st5" d="M3828.4,371.6h-9.6v-1.3l5.1-5.7c0.8-0.9,1.3-1.6,1.6-2.1c0.3-0.5,0.4-1.1,0.4-1.7c0-0.8-0.2-1.4-0.7-1.9
							s-1.1-0.7-1.9-0.7c-0.9,0-1.7,0.3-2.2,0.8c-0.5,0.5-0.8,1.3-0.8,2.2h-1.9c0-1.4,0.4-2.4,1.3-3.3s2-1.3,3.5-1.3
							c1.4,0,2.4,0.4,3.2,1.1c0.8,0.7,1.2,1.7,1.2,2.9c0,1.4-0.9,3.2-2.8,5.2l-3.9,4.3h7.4V371.6z"/>
						<path class="st5" d="M3836.5,371.6h-1.9v-12.5l-3.8,1.4v-1.7l5.4-2h0.3V371.6z"/>
					</g>
				</g>
				<line id="ephQY7FqZmf102" class="st6" x1="3797.3" y1="344" x2="3797.3" y2="326.6"/>
			</g>
		</g>
	</g>
</g>
<circle id="ephQY7FqZmf105" class="st7" cx="548.4" cy="191.5" r="7.4"/>
<g id="ephQY7FqZmf106">
	<g class="st4">
		<path class="st5" d="M53.9,34.1v16.7c0,2.3-0.7,4.2-2.2,5.7c-1.4,1.5-3.4,2.3-5.9,2.5l-0.9,0c-2.7,0-4.8-0.7-6.4-2.2
			c-1.6-1.4-2.4-3.4-2.4-6V34.1h3.2v16.6c0,1.8,0.5,3.2,1.5,4.1s2.4,1.5,4.2,1.5c1.8,0,3.2-0.5,4.2-1.5s1.5-2.4,1.5-4.1V34.1H53.9z"
			/>
		<path class="st5" d="M66.2,47.7c-2.8-0.8-4.8-1.8-6.1-2.9c-1.3-1.2-1.9-2.6-1.9-4.3c0-1.9,0.8-3.5,2.3-4.8c1.5-1.3,3.5-1.9,6-1.9
			c1.7,0,3.2,0.3,4.5,1c1.3,0.7,2.3,1.5,3.1,2.7c0.7,1.1,1.1,2.4,1.1,3.8H72c0-1.5-0.5-2.7-1.4-3.5c-0.9-0.8-2.3-1.3-4-1.3
			c-1.6,0-2.8,0.4-3.7,1.1c-0.9,0.7-1.3,1.7-1.3,2.9c0,1,0.4,1.8,1.3,2.5c0.8,0.7,2.3,1.3,4.3,1.9s3.6,1.2,4.8,1.9
			c1.2,0.7,2,1.5,2.6,2.4c0.6,0.9,0.8,2,0.8,3.2c0,2-0.8,3.6-2.3,4.8s-3.6,1.8-6.2,1.8c-1.7,0-3.3-0.3-4.7-1
			c-1.5-0.6-2.6-1.5-3.4-2.7c-0.8-1.1-1.2-2.4-1.2-3.8h3.2c0,1.5,0.5,2.7,1.6,3.5c1.1,0.9,2.6,1.3,4.4,1.3c1.7,0,3-0.3,3.9-1
			c0.9-0.7,1.4-1.6,1.4-2.8s-0.4-2.1-1.3-2.8C70,49,68.5,48.3,66.2,47.7z"/>
		<path class="st5" d="M79.5,58.6V34.1h6.9c2.1,0,4,0.5,5.7,1.4c1.6,0.9,2.9,2.3,3.8,4c0.9,1.7,1.3,3.7,1.4,6v1.6
			c0,2.3-0.4,4.3-1.3,6.1c-0.9,1.7-2.2,3.1-3.8,4c-1.7,0.9-3.6,1.4-5.8,1.4H79.5z M82.7,36.7V56h3.4c2.5,0,4.4-0.8,5.8-2.3
			c1.4-1.5,2.1-3.8,2.1-6.6v-1.4c0-2.8-0.7-5-2-6.5c-1.3-1.5-3.2-2.3-5.6-2.4H82.7z"/>
		<path class="st5" d="M110.8,60.7h-2.7l10.2-26.6h2.7L110.8,60.7z"/>
		<path class="st5" d="M147.2,47.3h-10.6V56h12.3v2.6h-15.6V34.1h15.4v2.6h-12.2v7.9h10.6V47.3z"/>
		<path class="st5" d="M170.2,34.1v16.7c0,2.3-0.7,4.2-2.2,5.7c-1.4,1.5-3.4,2.3-5.9,2.5l-0.9,0c-2.7,0-4.8-0.7-6.4-2.2
			c-1.6-1.4-2.4-3.4-2.4-6V34.1h3.2v16.6c0,1.8,0.5,3.2,1.5,4.1s2.4,1.5,4.2,1.5c1.8,0,3.2-0.5,4.2-1.5s1.5-2.4,1.5-4.1V34.1H170.2z
			"/>
		<path class="st5" d="M184.3,48.7h-5.8v9.9h-3.2V34.1h8.1c2.8,0,4.9,0.6,6.4,1.9s2.2,3.1,2.2,5.5c0,1.5-0.4,2.9-1.2,4s-2,2-3.4,2.5
			l5.8,10.4v0.2h-3.5L184.3,48.7z M178.6,46.1h5c1.6,0,2.9-0.4,3.8-1.2s1.4-1.9,1.4-3.3c0-1.5-0.5-2.7-1.4-3.5s-2.2-1.2-3.9-1.2
			h-4.9V46.1z"/>
	</g>
</g>
<g id="ephQY7FqZmf109" class="st3">
	<g id="ephQY7FqZmf110" class="st4">
		<path class="st5" d="M364.5,52.1h-6.2v6.5h-1.9V43.9h9.1v1.6h-7.2v5h6.2V52.1z"/>
		<path class="st5" d="M366.8,53c0-1.1,0.2-2,0.6-2.9c0.4-0.9,1-1.5,1.8-2s1.6-0.7,2.6-0.7c1.5,0,2.7,0.5,3.6,1.5
			c0.9,1,1.4,2.4,1.4,4.1v0.1c0,1.1-0.2,2-0.6,2.9c-0.4,0.8-1,1.5-1.7,2s-1.6,0.7-2.6,0.7c-1.5,0-2.7-0.5-3.6-1.5
			c-0.9-1-1.4-2.4-1.4-4.1V53z M368.7,53.3c0,1.2,0.3,2.2,0.8,2.9s1.3,1.1,2.3,1.1c1,0,1.7-0.4,2.3-1.1c0.6-0.7,0.8-1.8,0.8-3.1
			c0-1.2-0.3-2.2-0.9-2.9s-1.3-1.1-2.3-1.1c-0.9,0-1.7,0.4-2.2,1.1C369,50.8,368.7,51.9,368.7,53.3z"/>
		<path class="st5" d="M384.4,49.4c-0.3,0-0.6-0.1-0.9-0.1c-1.2,0-2.1,0.5-2.5,1.6v7.8h-1.9V47.7h1.8l0,1.3c0.6-1,1.5-1.5,2.6-1.5
			c0.4,0,0.6,0,0.8,0.1V49.4z"/>
		<path class="st5" d="M390.7,58.8c-1.5,0-2.7-0.5-3.6-1.5s-1.4-2.3-1.4-3.9v-0.3c0-1.1,0.2-2.1,0.6-2.9c0.4-0.9,1-1.5,1.7-2
			c0.7-0.5,1.6-0.7,2.4-0.7c1.4,0,2.5,0.5,3.3,1.4c0.8,0.9,1.2,2.3,1.2,4v0.8h-7.4c0,1.1,0.3,1.9,0.9,2.6c0.6,0.7,1.4,1,2.3,1
			c0.7,0,1.2-0.1,1.7-0.4s0.9-0.6,1.2-1.1l1.1,0.9C393.9,58.1,392.5,58.8,390.7,58.8z M390.5,49c-0.8,0-1.4,0.3-1.9,0.8
			c-0.5,0.5-0.8,1.3-0.9,2.3h5.5V52c-0.1-1-0.3-1.7-0.8-2.2C391.9,49.3,391.2,49,390.5,49z"/>
		<path class="st5" d="M397.1,44.8c0-0.3,0.1-0.6,0.3-0.8c0.2-0.2,0.5-0.3,0.8-0.3c0.4,0,0.6,0.1,0.8,0.3c0.2,0.2,0.3,0.5,0.3,0.8
			s-0.1,0.6-0.3,0.8s-0.5,0.3-0.8,0.3c-0.4,0-0.6-0.1-0.8-0.3S397.1,45.1,397.1,44.8z M399.1,58.6h-1.9V47.7h1.9V58.6z"/>
		<path class="st5" d="M401.7,53.1c0-1.7,0.4-3.1,1.2-4.1c0.8-1,1.8-1.5,3.1-1.5c1.3,0,2.4,0.5,3.1,1.4l0.1-1.2h1.7v10.7
			c0,1.4-0.4,2.5-1.3,3.3c-0.8,0.8-2,1.2-3.4,1.2c-0.8,0-1.6-0.2-2.3-0.5c-0.8-0.3-1.3-0.8-1.7-1.4l1-1.1c0.8,1,1.8,1.5,2.9,1.5
			c0.9,0,1.6-0.3,2.1-0.8c0.5-0.5,0.8-1.2,0.8-2.2v-0.9c-0.7,0.9-1.8,1.3-3.1,1.3c-1.3,0-2.3-0.5-3.1-1.5
			C402.1,56.2,401.7,54.8,401.7,53.1z M403.6,53.3c0,1.2,0.3,2.2,0.8,2.9c0.5,0.7,1.2,1.1,2.1,1.1c1.2,0,2-0.5,2.6-1.6v-5
			c-0.6-1-1.4-1.6-2.6-1.6c-0.9,0-1.6,0.4-2.1,1.1C403.8,50.8,403.6,51.9,403.6,53.3z"/>
		<path class="st5" d="M415.5,47.7l0.1,1.4c0.8-1.1,1.9-1.6,3.3-1.6c2.3,0,3.5,1.3,3.5,3.9v7.2h-1.9v-7.2c0-0.8-0.2-1.4-0.5-1.7
			c-0.4-0.4-0.9-0.6-1.7-0.6c-0.6,0-1.1,0.2-1.6,0.5s-0.8,0.7-1.1,1.3v7.8h-1.9V47.7H415.5z"/>
		<path class="st5" d="M438.9,51.8h-6.4V57h7.4v1.6h-9.3V43.9h9.2v1.6h-7.3v4.7h6.4V51.8z"/>
		<path class="st5" d="M445.7,51.7l2.4-4h2.2l-3.6,5.4l3.7,5.5h-2.2l-2.5-4.1l-2.5,4.1H441l3.7-5.5l-3.6-5.4h2.2L445.7,51.7z"/>
		<path class="st5" d="M456.5,57.3c0.7,0,1.2-0.2,1.7-0.6c0.5-0.4,0.8-0.9,0.8-1.5h1.8c0,0.6-0.2,1.2-0.6,1.8
			c-0.4,0.6-0.9,1-1.6,1.4c-0.7,0.3-1.4,0.5-2.1,0.5c-1.5,0-2.7-0.5-3.6-1.5c-0.9-1-1.3-2.4-1.3-4.1v-0.3c0-1.1,0.2-2,0.6-2.8
			c0.4-0.8,1-1.5,1.7-1.9c0.7-0.5,1.6-0.7,2.6-0.7c1.2,0,2.2,0.4,3.1,1.1c0.8,0.7,1.2,1.7,1.3,2.9h-1.8c-0.1-0.7-0.3-1.3-0.8-1.7
			c-0.5-0.5-1.1-0.7-1.8-0.7c-1,0-1.7,0.3-2.2,1c-0.5,0.7-0.8,1.7-0.8,3v0.4c0,1.3,0.3,2.2,0.8,2.9
			C454.8,56.9,455.5,57.3,456.5,57.3z"/>
		<path class="st5" d="M464.8,49c0.8-1,1.9-1.5,3.2-1.5c2.3,0,3.5,1.3,3.5,3.9v7.2h-1.9v-7.2c0-0.8-0.2-1.4-0.5-1.7
			c-0.4-0.4-0.9-0.6-1.7-0.6c-0.6,0-1.1,0.2-1.6,0.5s-0.8,0.7-1.1,1.3v7.8h-1.9V43.1h1.9V49z"/>
		<path class="st5" d="M481.1,58.6c-0.1-0.2-0.2-0.6-0.3-1.2c-0.9,0.9-1.9,1.4-3.1,1.4c-1.1,0-2-0.3-2.7-0.9c-0.7-0.6-1-1.4-1-2.3
			c0-1.1,0.4-2,1.3-2.7c0.9-0.6,2.1-0.9,3.7-0.9h1.8v-0.9c0-0.7-0.2-1.2-0.6-1.6c-0.4-0.4-1-0.6-1.7-0.6c-0.7,0-1.2,0.2-1.7,0.5
			c-0.5,0.3-0.7,0.7-0.7,1.2h-1.9c0-0.5,0.2-1.1,0.6-1.6c0.4-0.5,0.9-0.9,1.6-1.2c0.7-0.3,1.4-0.4,2.2-0.4c1.3,0,2.2,0.3,3,0.9
			c0.7,0.6,1.1,1.5,1.1,2.6v5c0,1,0.1,1.8,0.4,2.4v0.2H481.1z M478,57.2c0.6,0,1.1-0.2,1.7-0.5c0.5-0.3,0.9-0.7,1.1-1.2v-2.2h-1.5
			c-2.3,0-3.4,0.7-3.4,2c0,0.6,0.2,1,0.6,1.4S477.4,57.2,478,57.2z"/>
		<path class="st5" d="M487.4,47.7l0.1,1.4c0.8-1.1,1.9-1.6,3.3-1.6c2.3,0,3.5,1.3,3.5,3.9v7.2h-1.9v-7.2c0-0.8-0.2-1.4-0.5-1.7
			c-0.4-0.4-0.9-0.6-1.7-0.6c-0.6,0-1.1,0.2-1.6,0.5s-0.8,0.7-1.1,1.3v7.8h-1.9V47.7H487.4z"/>
		<path class="st5" d="M496.6,53.1c0-1.7,0.4-3.1,1.2-4.1c0.8-1,1.8-1.5,3.1-1.5c1.3,0,2.4,0.5,3.1,1.4l0.1-1.2h1.7v10.7
			c0,1.4-0.4,2.5-1.3,3.3c-0.8,0.8-2,1.2-3.4,1.2c-0.8,0-1.6-0.2-2.3-0.5c-0.8-0.3-1.3-0.8-1.7-1.4l1-1.1c0.8,1,1.8,1.5,2.9,1.5
			c0.9,0,1.6-0.3,2.1-0.8c0.5-0.5,0.8-1.2,0.8-2.2v-0.9c-0.7,0.9-1.8,1.3-3.1,1.3c-1.3,0-2.3-0.5-3.1-1.5
			C497,56.2,496.6,54.8,496.6,53.1z M498.4,53.3c0,1.2,0.3,2.2,0.8,2.9c0.5,0.7,1.2,1.1,2.1,1.1c1.2,0,2-0.5,2.6-1.6v-5
			c-0.6-1-1.4-1.6-2.6-1.6c-0.9,0-1.6,0.4-2.1,1.1C498.7,50.8,498.4,51.9,498.4,53.3z"/>
		<path class="st5" d="M513.1,58.8c-1.5,0-2.7-0.5-3.6-1.5s-1.4-2.3-1.4-3.9v-0.3c0-1.1,0.2-2.1,0.6-2.9c0.4-0.9,1-1.5,1.7-2
			c0.7-0.5,1.6-0.7,2.4-0.7c1.4,0,2.5,0.5,3.3,1.4s1.2,2.3,1.2,4v0.8H510c0,1.1,0.3,1.9,0.9,2.6c0.6,0.7,1.4,1,2.3,1
			c0.7,0,1.2-0.1,1.7-0.4s0.9-0.6,1.2-1.1l1.1,0.9C516.4,58.1,515,58.8,513.1,58.8z M512.9,49c-0.8,0-1.4,0.3-1.9,0.8
			c-0.5,0.5-0.8,1.3-0.9,2.3h5.5V52c-0.1-1-0.3-1.7-0.8-2.2C514.3,49.3,513.7,49,512.9,49z"/>
		<path class="st5" d="M530.4,52.7h-3.5v6h-2V43.9h4.9c1.7,0,2.9,0.4,3.8,1.1c0.9,0.8,1.3,1.9,1.3,3.3c0,0.9-0.2,1.7-0.7,2.4
			s-1.2,1.2-2.1,1.5l3.5,6.2v0.1h-2.1L530.4,52.7z M526.9,51.1h3c1,0,1.7-0.2,2.3-0.7c0.6-0.5,0.9-1.2,0.9-2c0-0.9-0.3-1.6-0.8-2.1
			s-1.3-0.7-2.3-0.7h-3V51.1z"/>
		<path class="st5" d="M544.2,58.6c-0.1-0.2-0.2-0.6-0.3-1.2c-0.9,0.9-1.9,1.4-3.1,1.4c-1.1,0-2-0.3-2.7-0.9c-0.7-0.6-1-1.4-1-2.3
			c0-1.1,0.4-2,1.3-2.7c0.9-0.6,2.1-0.9,3.7-0.9h1.8v-0.9c0-0.7-0.2-1.2-0.6-1.6c-0.4-0.4-1-0.6-1.7-0.6c-0.7,0-1.2,0.2-1.7,0.5
			s-0.7,0.7-0.7,1.2h-1.9c0-0.5,0.2-1.1,0.6-1.6c0.4-0.5,0.9-0.9,1.6-1.2c0.7-0.3,1.4-0.4,2.2-0.4c1.3,0,2.2,0.3,3,0.9
			s1.1,1.5,1.1,2.6v5c0,1,0.1,1.8,0.4,2.4v0.2H544.2z M541.1,57.2c0.6,0,1.1-0.2,1.7-0.5c0.5-0.3,0.9-0.7,1.1-1.2v-2.2h-1.5
			c-2.3,0-3.4,0.7-3.4,2c0,0.6,0.2,1,0.6,1.4S540.5,57.2,541.1,57.2z"/>
		<path class="st5" d="M551.2,45v2.6h2v1.4h-2v6.8c0,0.4,0.1,0.8,0.3,1c0.2,0.2,0.5,0.3,0.9,0.3c0.2,0,0.5,0,0.9-0.1v1.5
			c-0.5,0.1-1,0.2-1.4,0.2c-0.8,0-1.5-0.3-1.9-0.8c-0.4-0.5-0.6-1.2-0.6-2.2v-6.8h-2v-1.4h2V45H551.2z"/>
		<path class="st5" d="M560,58.8c-1.5,0-2.7-0.5-3.6-1.5s-1.4-2.3-1.4-3.9v-0.3c0-1.1,0.2-2.1,0.6-2.9c0.4-0.9,1-1.5,1.7-2
			c0.7-0.5,1.6-0.7,2.4-0.7c1.4,0,2.5,0.5,3.3,1.4s1.2,2.3,1.2,4v0.8h-7.4c0,1.1,0.3,1.9,0.9,2.6c0.6,0.7,1.4,1,2.3,1
			c0.7,0,1.2-0.1,1.7-0.4s0.9-0.6,1.2-1.1l1.1,0.9C563.2,58.1,561.8,58.8,560,58.8z M559.8,49c-0.8,0-1.4,0.3-1.9,0.8
			c-0.5,0.5-0.8,1.3-0.9,2.3h5.5V52c-0.1-1-0.3-1.7-0.8-2.2C561.2,49.3,560.5,49,559.8,49z"/>
	</g>
</g>
</svg>
