<svg width="36" height="36" viewBox="0 0 36 36" fill="none" xmlns="http://www.w3.org/2000/svg">
<path fill-rule="evenodd" clip-rule="evenodd" d="M17.2336 3.38015C17.6854 3.03135 18.3002 3.03002 18.7535 3.37717L19.4766 3.93277C20.1448 4.44008 21.5346 5.28536 23.1753 5.99591C24.1115 6.39904 25.109 6.67062 26.1027 6.83416C26.7077 6.93373 27.211 6.97724 27.4579 6.98211L28.4947 7.00129C29.199 7.01288 29.7582 7.61672 29.7581 8.35026L29.7637 19.5795C29.7637 22.4869 28.2073 25.7197 25.506 28.4629C23.0427 30.9675 20.1788 32.5295 17.9985 32.5295C15.8173 32.5295 12.9545 30.9678 10.4924 28.463C7.79027 25.719 6.23438 22.4862 6.23438 19.5795V8.35086C6.23349 7.6172 6.7928 7.0132 7.496 7.00249L8.53757 6.98331L8.75271 6.97294C9.05668 6.95302 9.47428 6.90702 9.96128 6.82443C10.9344 6.65938 11.9068 6.39085 12.8181 5.99722C13.0867 5.88128 13.3518 5.76002 13.6131 5.63401C14.4178 5.24594 15.153 4.83018 15.8034 4.41444C16.0312 4.26873 16.2324 4.1334 16.4046 4.01189C16.4667 3.9681 16.5171 3.93184 16.5555 3.90365L17.2336 3.38015ZM18.3491 3.92346C18.1362 3.76047 17.8524 3.76107 17.6405 3.92468L17.0213 4.4043C16.9923 4.42634 16.9538 4.45501 16.9037 4.49127L16.6467 4.67206C16.5006 4.77248 16.3386 4.88014 16.161 4.9936C15.4891 5.4231 14.731 5.85188 13.901 6.25209C13.6314 6.38209 13.3579 6.50721 13.0807 6.62686C12.1164 7.0434 11.0939 7.32577 10.0718 7.49912C9.55949 7.58601 9.11779 7.6346 8.78864 7.65591L8.56353 7.66693L7.50711 7.68639C7.17714 7.69141 6.90621 7.984 6.90664 8.35044V19.5795C6.90664 22.2873 8.38277 25.3542 10.9675 27.9791C13.3154 30.3678 16.0244 31.8455 17.9985 31.8455C19.9717 31.8455 22.682 30.3674 25.0309 27.979C27.6147 25.355 29.0915 22.2878 29.0915 19.5797L29.0859 8.3504C29.0859 7.98369 28.8146 7.69062 28.4833 7.68517L27.4452 7.66599C27.2179 7.66151 26.8188 7.62975 26.3319 7.5609L25.9953 7.50938C24.9519 7.33765 23.9035 7.05221 22.9127 6.62554C21.8831 6.17971 20.935 5.67578 20.0891 5.15324C19.6554 4.8853 19.2842 4.63315 19.0826 4.48532L18.3491 3.92346ZM18.4861 5.00003C18.1923 4.76937 17.7959 4.77025 17.503 5.00218L16.9566 5.43613C16.9428 5.44698 15.5974 6.49929 13.5434 7.40838C11.6109 8.26434 9.71223 8.324 9.65651 8.32508L8.73703 8.34245C8.28074 8.34956 7.91446 8.75516 7.91505 9.25263V19.4122C7.91505 21.9518 9.25249 24.8018 11.585 27.2307C13.7086 29.4461 16.1666 30.8194 17.9987 30.8194C19.8296 30.8194 22.2886 29.4461 24.4131 27.2307C26.7437 24.8039 28.0832 21.9541 28.0832 19.4122L28.0781 9.25263C28.0782 8.75481 27.7117 8.34907 27.2552 8.34136L26.3396 8.324C26.286 8.32292 24.3893 8.26325 22.4508 7.40731C20.4108 6.50145 19.0833 5.47085 19.0445 5.43938L19.0374 5.43396L18.4861 5.00003Z" fill="#E6DACF"/>
<path d="M21.5797 20.7883C21.5797 19.2975 20.919 18.3996 19.8856 17.9422C20.8174 17.4848 21.3934 16.6547 21.3934 15.3671C21.3934 13.3681 19.9364 11.9958 17.8866 11.9958C15.9553 11.9958 14.4475 13.2326 14.3458 15.2824H16.0739C16.1586 14.2151 16.8362 13.5544 17.8866 13.5544C18.8692 13.5544 19.6654 14.1982 19.6654 15.418C19.6654 16.5191 19.0894 17.2476 17.8357 17.2476H17.5477V18.7554H17.8357C19.191 18.7554 19.8517 19.5177 19.8517 20.7375C19.8517 22.0081 19.0047 22.7366 17.8866 22.7366C16.887 22.7366 15.9892 22.1944 15.9214 20.9069H14.1934C14.2611 23.2617 15.9553 24.2951 17.8866 24.2951C19.9026 24.2951 21.5797 23.1093 21.5797 20.7883Z" fill="black" fill-opacity="0.7"/>
</svg>
