<svg width="36" height="36" viewBox="0 0 36 36" fill="none" xmlns="http://www.w3.org/2000/svg">
<path fill-rule="evenodd" clip-rule="evenodd" d="M17.2336 3.38015C17.6854 3.03135 18.3002 3.03002 18.7535 3.37717L19.4766 3.93277C20.1448 4.44008 21.5346 5.28537 23.1753 5.99591C24.1115 6.39904 25.109 6.67062 26.1027 6.83416C26.7077 6.93373 27.211 6.97726 27.4579 6.98211L28.4947 7.00129C29.199 7.01288 29.7582 7.61672 29.7581 8.35026L29.7637 19.5795C29.7637 22.4869 28.2073 25.7197 25.506 28.4629C23.0427 30.9675 20.1788 32.5295 17.9985 32.5295C15.8173 32.5295 12.9545 30.9678 10.4924 28.463C7.79027 25.719 6.23438 22.4862 6.23438 19.5795V8.35086C6.23349 7.6172 6.7928 7.0132 7.496 7.0025L8.53757 6.98331L8.75271 6.97294C9.05668 6.95302 9.47428 6.90704 9.96128 6.82443C10.9344 6.65938 11.9068 6.39085 12.8181 5.99722C13.0867 5.88129 13.3518 5.76002 13.6131 5.63402C14.4178 5.24594 15.153 4.83019 15.8034 4.41444C16.0312 4.26873 16.2324 4.13341 16.4046 4.0119C16.4667 3.9681 16.5171 3.93186 16.5555 3.90365L17.2336 3.38015ZM18.3491 3.92346C18.1362 3.76047 17.8524 3.76107 17.6405 3.92468L17.0213 4.4043C16.9923 4.42634 16.9538 4.45503 16.9037 4.49127L16.6467 4.67206C16.5006 4.77248 16.3386 4.88014 16.161 4.9936C15.4891 5.4231 14.731 5.85188 13.901 6.2521C13.6314 6.3821 13.3579 6.50723 13.0807 6.62686C12.1164 7.0434 11.0939 7.32577 10.0718 7.49912C9.55949 7.58601 9.11779 7.6346 8.78864 7.65591L8.56353 7.66693L7.50711 7.6864C7.17714 7.69143 6.90621 7.98402 6.90664 8.35044V19.5795C6.90664 22.2873 8.38277 25.3542 10.9675 27.9792C13.3154 30.3678 16.0244 31.8455 17.9985 31.8455C19.9717 31.8455 22.682 30.3674 25.0309 27.979C27.6147 25.355 29.0915 22.2878 29.0915 19.5797L29.0859 8.3504C29.0859 7.98369 28.8146 7.69064 28.4833 7.68517L27.4452 7.66599C27.2179 7.66151 26.8188 7.62975 26.3319 7.5609L25.9953 7.50938C24.9519 7.33765 23.9035 7.05222 22.9127 6.62554C21.8831 6.17971 20.935 5.67578 20.0891 5.15324C19.6554 4.8853 19.2842 4.63315 19.0826 4.48532L18.3491 3.92346ZM18.4861 5.00002C18.1923 4.76937 17.7959 4.77025 17.503 5.0022L16.9566 5.43613C16.9428 5.44699 15.5974 6.49929 13.5434 7.4084C11.6109 8.26434 9.71223 8.32401 9.65651 8.32508L8.73703 8.34245C8.28074 8.34956 7.91446 8.75516 7.91505 9.25264V19.4122C7.91505 21.9518 9.25249 24.8018 11.585 27.2307C13.7086 29.4461 16.1666 30.8194 17.9987 30.8194C19.8296 30.8194 22.2886 29.4461 24.4131 27.2307C26.7437 24.8039 28.0832 21.9541 28.0832 19.4122L28.0781 9.25264C28.0782 8.75481 27.7117 8.34907 27.2552 8.34136L26.3396 8.32401C26.286 8.32292 24.3893 8.26325 22.4508 7.40731C20.4108 6.50145 19.0833 5.47085 19.0445 5.43939L19.0374 5.43396L18.4861 5.00002Z" fill="#CFD6E6"/>
<path fill-rule="evenodd" clip-rule="evenodd" d="M13.0886 6.62347C13.3631 6.50485 13.634 6.38086 13.901 6.2521C13.9038 6.25078 13.9065 6.24945 13.9092 6.24814C14.7359 5.84905 15.4914 5.42169 16.161 4.9936C16.1639 4.9917 16.167 4.98979 16.17 4.98788C16.3439 4.87652 16.5032 4.77078 16.6467 4.67206L16.9037 4.49127C16.9235 4.47699 16.9414 4.46389 16.9576 4.45191C16.9623 4.4485 16.9668 4.44517 16.9712 4.44194C16.9904 4.4277 17.007 4.41519 17.0213 4.4043L17.6405 3.92468C17.6433 3.9225 17.6461 3.92034 17.6491 3.91819C17.6491 3.91819 17.6491 3.9182 17.6491 3.91819C17.8568 3.76352 18.1305 3.76266 18.3395 3.91621C18.3397 3.91645 18.339 3.91599 18.3395 3.91621C18.3423 3.91836 18.3461 3.92125 18.3491 3.92346L19.0826 4.48532C19.2842 4.63315 19.6554 4.8853 20.0891 5.15324C20.9327 5.67435 21.878 6.17696 22.9043 6.62189C22.9047 6.62207 22.9038 6.6217 22.9043 6.62189C22.9067 6.62292 22.9103 6.62451 22.9127 6.62554C23.9024 7.05171 24.9495 7.33699 25.9916 7.50877C25.9929 7.50899 25.9942 7.50918 25.9953 7.50938L26.3319 7.5609C26.535 7.58962 26.7228 7.61189 26.8894 7.62842C27.0321 7.64259 27.1592 7.65255 27.2667 7.65872C27.2672 7.65874 27.2676 7.65877 27.2682 7.65879C27.3348 7.6626 27.3938 7.66496 27.4443 7.66597L28.4821 7.68516C28.4823 7.68516 28.482 7.68516 28.4821 7.68516C28.8132 7.69078 29.0858 7.98369 29.0859 8.35018C29.0859 8.35026 29.0859 8.35011 29.0859 8.35018L29.0915 19.5795C29.0915 19.5795 29.0915 19.5794 29.0915 19.5795C29.0915 22.2877 27.6147 25.355 25.0309 27.979C25.0281 27.9816 25.0254 27.9845 25.0227 27.9871C25.0227 27.9873 25.0229 27.987 25.0227 27.9871C22.6758 30.3706 19.9695 31.8455 17.9985 31.8455C16.0267 31.8455 13.3219 30.3713 10.9759 27.9877C10.9758 27.9876 10.9761 27.9878 10.9759 27.9877C10.9733 27.985 10.9702 27.9819 10.9675 27.9792C8.38277 25.3542 6.90664 22.2873 6.90664 19.5795V8.35086C6.90664 8.35074 6.90664 8.35099 6.90664 8.35086C6.9064 7.98488 7.17688 7.69184 7.5064 7.6864C7.50664 7.6864 7.50618 7.68642 7.5064 7.6864L8.56353 7.66693L8.78864 7.65591C8.79156 7.65571 8.7945 7.65553 8.79743 7.65533C8.89295 7.64905 8.99779 7.64049 9.11097 7.62938C9.38668 7.60233 9.71181 7.56018 10.0718 7.49912C10.0731 7.4989 10.0743 7.49869 10.0756 7.49848C11.0964 7.32507 12.1176 7.04289 13.0807 6.62686C13.0833 6.62576 13.086 6.62457 13.0886 6.62347C13.0885 6.62348 13.0886 6.62344 13.0886 6.62347ZM27.4592 8.37225C27.4503 8.36965 27.4412 8.36722 27.4323 8.36494C27.4321 8.36487 27.4326 8.36501 27.4323 8.36494C27.3756 8.35062 27.3157 8.34238 27.2552 8.34136L26.3396 8.32401C26.286 8.32292 24.3893 8.26325 22.4508 7.40731C20.4108 6.50145 19.0833 5.47085 19.0445 5.43939L19.0374 5.43396L18.4861 5.00002C18.1923 4.76937 17.7959 4.77025 17.503 5.0022L16.9566 5.43613C16.9307 5.45646 15.5879 6.50347 13.5434 7.4084C11.6109 8.26434 9.71224 8.32401 9.65651 8.32508L8.73703 8.34245C8.68938 8.3432 8.64272 8.34828 8.59736 8.35736C8.59033 8.35877 8.58331 8.36028 8.57635 8.36187C8.56133 8.36532 8.54646 8.3692 8.53177 8.37352C8.17572 8.47792 7.91456 8.83251 7.91505 9.25264V19.4122C7.91505 21.9518 9.25249 24.8018 11.585 27.2307C13.7086 29.4461 16.1666 30.8194 17.9987 30.8194C19.8296 30.8194 22.2886 29.4461 24.4131 27.2307C26.7437 24.8039 28.0832 21.9541 28.0832 19.4122L28.0781 9.25264C28.0782 8.83164 27.8162 8.4765 27.4592 8.37225ZM27.3773 19.4122L27.3722 9.25298C27.3722 9.17786 27.3448 9.12042 27.314 9.08631C27.2841 9.05314 27.2584 9.0474 27.2433 9.04714L27.2418 9.04712L26.3262 9.02977C26.234 9.0279 24.2285 8.96391 22.1656 8.05304L22.1642 8.05244C20.1184 7.14402 18.7586 6.11261 18.6102 5.9959L18.6009 5.98864L18.0503 5.55526C18.0502 5.55517 18.0505 5.55534 18.0503 5.55526C18.0273 5.53724 18.0083 5.53349 17.9958 5.53352C17.9834 5.53355 17.9646 5.53715 17.9415 5.55541C17.9413 5.55548 17.9415 5.55534 17.9415 5.55541L17.3905 5.9931C17.3905 5.99302 17.3878 5.99516 17.3838 5.99821L17.3682 6.0103C17.355 6.02031 17.3368 6.03414 17.3137 6.05149C17.2674 6.08619 17.2013 6.13497 17.1166 6.19549C16.947 6.31648 16.7029 6.48464 16.3938 6.68115C15.7761 7.07367 14.895 7.58209 13.8291 8.05387C11.7718 8.96507 9.76463 9.029 9.67024 9.03084L8.74804 9.04825C8.73345 9.04847 8.70822 9.05395 8.67859 9.08676C8.64808 9.12054 8.62085 9.17713 8.62094 9.25179V19.4122C8.62094 21.7165 9.84558 24.4003 12.0942 26.7418C13.1144 27.8062 14.2059 28.6582 15.2457 29.2398C16.2947 29.8264 17.2462 30.1135 17.9987 30.1135C18.7504 30.1135 19.7021 29.8265 20.7513 29.2398C21.7914 28.658 22.8829 27.8064 23.9036 26.7421C26.1503 24.4028 27.3771 21.7185 27.3773 19.4122C27.3773 19.4124 27.3773 19.4121 27.3773 19.4122ZM8.75518 6.97278C9.05815 6.95282 9.47343 6.90705 9.9575 6.82507C9.95875 6.82486 9.96002 6.82465 9.96128 6.82443C10.9316 6.65986 11.9012 6.39241 12.8102 6.00061C12.8102 6.00064 12.8103 6.0006 12.8102 6.00061C12.8128 5.99951 12.8155 5.99834 12.8181 5.99722C13.0838 5.8825 13.3462 5.76256 13.6049 5.63797C13.6076 5.63666 13.6104 5.63533 13.6131 5.63402C14.4142 5.24772 15.1463 4.83399 15.7945 4.42014C15.7974 4.41825 15.8004 4.41634 15.8034 4.41444C15.9683 4.30899 16.1192 4.20898 16.2553 4.11571C16.2574 4.11427 16.2595 4.11284 16.2616 4.1114C16.3113 4.07731 16.359 4.04412 16.4046 4.0119C16.4426 3.98518 16.4761 3.96128 16.5051 3.94028C16.5075 3.93855 16.5099 3.93684 16.5123 3.93514C16.5282 3.92372 16.5426 3.91322 16.5555 3.90365L17.2336 3.38015C17.6854 3.03135 18.3002 3.03002 18.7535 3.37717L18.7621 3.38379L19.4766 3.93277C19.479 3.93455 19.4813 3.93632 19.4837 3.93811C19.4875 3.94098 19.4913 3.94386 19.4951 3.94674C19.7313 4.1247 20.0536 4.34275 20.4426 4.58121C21.1654 5.02443 22.1182 5.53813 23.1753 5.99591C23.1777 5.99694 23.1801 5.99796 23.1825 5.99899C23.1821 5.99881 23.1829 5.99917 23.1825 5.99899C24.115 6.39959 25.1094 6.6704 26.0988 6.83353C26.1001 6.83374 26.1015 6.83395 26.1027 6.83416C26.1039 6.83437 26.1051 6.83457 26.1064 6.83477C26.2172 6.85298 26.3247 6.86931 26.4277 6.88387C26.4303 6.88424 26.4328 6.88459 26.4354 6.88496C26.8897 6.94887 27.2579 6.97818 27.4579 6.98211L28.4944 7.00129C28.4941 7.00127 28.4948 7.00129 28.4944 7.00129C29.1982 7.01348 29.7581 7.61698 29.7581 8.35006C29.7581 8.34999 29.7581 8.35013 29.7581 8.35006L29.7637 19.5794C29.7637 19.5792 29.7637 19.5794 29.7637 19.5794C29.7637 22.4837 28.2104 25.7131 25.5143 28.4544C25.5145 28.4543 25.5142 28.4544 25.5143 28.4544C25.5116 28.4571 25.5087 28.4602 25.506 28.4629C23.0427 30.9675 20.1788 32.5295 17.9985 32.5295C15.8173 32.5295 12.9545 30.9678 10.4924 28.463C10.4897 28.4604 10.487 28.4577 10.4844 28.4549C10.4845 28.455 10.4842 28.4547 10.4844 28.4549C7.78746 25.7126 6.23438 22.4832 6.23438 19.5795V8.35126C6.23438 8.3514 6.23438 8.35112 6.23438 8.35126C6.2337 7.6183 6.79214 7.01405 7.4945 7.00251C7.495 7.00251 7.4955 7.0025 7.496 7.0025L8.53757 6.98331L8.75271 6.97294C8.75354 6.97288 8.75436 6.97282 8.75518 6.97278Z" fill="#CFD6E6"/>
<path d="M21.5644 24.1765V22.6348H16.6515L20.4294 18.0099C21.1748 17.095 21.5644 16.4682 21.5644 15.4009C21.5644 13.3172 20.1414 12.0127 18.0745 12.0127C16.0247 12.0127 14.5677 13.368 14.5677 15.4179H16.2957C16.2957 14.0626 17.1597 13.5543 18.0745 13.5543C19.1927 13.5543 19.8364 14.2998 19.8364 15.384C19.8364 15.9939 19.6501 16.4343 19.1927 16.9934L14.5508 22.6348V24.1765H21.5644Z" fill="black" fill-opacity="0.7"/>
</svg>
